<?xml version="1.0" standalone="no"?>
<!DOCTYPE svg PUBLIC "-//W3C//DTD SVG 20010904//EN"
 "http://www.w3.org/TR/2001/REC-SVG-20010904/DTD/svg10.dtd">
<svg version="1.0" xmlns="http://www.w3.org/2000/svg"
 width="600.000000pt" height="600.000000pt" viewBox="0 0 600.000000 600.000000"
 preserveAspectRatio="xMidYMid meet">
<metadata>
Created by potrace 1.10, written by Peter Selinger 2001-2011
</metadata>
<g transform="translate(0.000000,600.000000) scale(0.100000,-0.100000)"
fill="#e92429" stroke="none">
<path d="M1950 4121 c-73 -23 -125 -57 -166 -109 -79 -101 -74 -27 -74 -1177
0 -564 4 -1033 9 -1043 4 -9 19 -39 32 -65 29 -59 93 -120 157 -150 l47 -22
1040 0 c1001 0 1042 1 1090 19 66 26 98 50 144 111 27 35 42 68 50 110 9 45
11 319 9 1085 l-3 1025 -24 47 c-34 67 -105 131 -174 156 l-59 22 -1026 -1
c-565 0 -1038 -4 -1052 -8z m816 -738 l235 -235 92 90 c51 49 160 158 244 241
83 83 158 151 165 151 17 0 288 -272 288 -288 0 -7 -108 -120 -240 -252 -132
-132 -240 -244 -240 -248 0 -4 108 -115 240 -246 132 -131 240 -244 240 -250
0 -17 -265 -280 -286 -285 -11 -2 -101 81 -259 239 l-242 242 -242 -241 c-133
-133 -248 -241 -256 -241 -8 0 -78 63 -156 140 l-141 139 20 28 c11 15 120
126 241 245 122 120 221 223 221 230 0 7 -106 119 -235 248 -148 147 -235 242
-235 255 0 29 270 286 293 279 9 -3 123 -111 253 -241z"/>
</g>
</svg>
