<?xml version="1.0" standalone="no"?>
<!DOCTYPE svg PUBLIC "-//W3C//DTD SVG 20010904//EN"
 "http://www.w3.org/TR/2001/REC-SVG-20010904/DTD/svg10.dtd">
<svg version="1.0" xmlns="http://www.w3.org/2000/svg"
 width="900.000000pt" height="261.000000pt" viewBox="0 0 900.000000 261.000000"
 preserveAspectRatio="xMidYMid meet">
<metadata>
Created by potrace 1.10, written by Peter Selinger 2001-2011
</metadata>
<g transform="translate(0.000000,261.000000) scale(0.100000,-0.100000)"
fill="#ff6c00" stroke="none">
<path d="M1165 2311 c-11 -4 -42 -12 -70 -16 -27 -4 -57 -13 -65 -20 -8 -7
-25 -16 -37 -19 -30 -10 -115 -106 -149 -169 -25 -48 -47 -134 -46 -182 1 -50
18 -94 53 -142 22 -29 39 -61 39 -71 0 -23 -26 -47 -60 -57 -29 -8 -116 -73
-145 -107 -30 -35 -81 -137 -99 -197 -10 -34 -16 -92 -16 -151 0 -87 3 -103
30 -156 16 -32 55 -87 87 -121 74 -80 129 -103 246 -103 175 0 286 48 466 202
l24 20 23 -28 c13 -15 24 -30 24 -33 0 -3 24 -31 54 -63 46 -48 62 -58 110
-69 87 -19 148 -1 246 73 l80 59 31 -21 c16 -12 41 -39 54 -60 59 -93 234 -71
359 44 l39 37 41 -44 c73 -78 105 -91 221 -91 88 1 109 4 160 28 33 15 82 44
110 65 74 56 187 133 189 129 2 -2 13 -23 25 -49 22 -45 116 -150 161 -180
l23 -15 -35 -40 c-53 -59 -68 -95 -68 -164 0 -65 21 -110 74 -159 14 -14 26
-29 26 -35 0 -6 19 -22 42 -35 51 -29 140 -32 216 -7 106 36 195 155 226 306
8 41 25 118 36 170 12 52 27 129 35 170 8 41 28 138 44 215 16 77 39 187 51
245 28 138 60 263 71 274 5 6 22 -6 41 -29 77 -90 96 -106 125 -103 21 2 27 8
25 23 -6 42 -3 63 16 141 11 45 34 108 53 140 47 84 150 183 229 221 124 59
396 77 449 29 12 -11 31 -51 42 -90 19 -62 20 -87 15 -211 -7 -177 -17 -250
-50 -348 -14 -43 -26 -84 -26 -92 0 -21 -68 -165 -96 -202 -13 -17 -24 -35
-24 -40 0 -4 -23 -35 -51 -68 -87 -103 -183 -142 -229 -93 -28 31 -43 91 -36
152 31 257 47 341 98 496 35 108 123 298 162 349 29 39 33 69 11 77 -11 5 -12
11 -4 25 9 18 5 19 -59 19 -91 0 -138 -24 -228 -114 -65 -66 -123 -156 -145
-226 -4 -14 -17 -50 -29 -80 -35 -90 -51 -142 -61 -200 -4 -30 -13 -80 -18
-110 -16 -90 -13 -282 4 -304 8 -11 15 -28 15 -37 0 -24 70 -126 117 -170 67
-63 94 -72 223 -72 92 0 127 4 174 21 87 32 178 95 257 180 57 62 82 99 129
197 96 198 130 342 130 545 0 76 -5 122 -15 147 -8 19 -15 44 -15 54 0 26 -62
148 -105 207 -18 26 -51 55 -72 66 -21 10 -49 24 -63 31 -45 23 -200 35 -327
24 -106 -8 -232 -38 -258 -61 -5 -4 -18 -8 -28 -8 -28 0 -150 -85 -228 -160
-79 -75 -119 -143 -126 -217 -7 -61 -17 -73 -55 -66 -21 4 -28 11 -28 29 l0
25 -122 -3 -123 -3 -6 -72 c-4 -39 -10 -76 -13 -82 -4 -6 -13 -48 -21 -93 -8
-46 -21 -112 -29 -148 -9 -36 -22 -102 -31 -147 -18 -99 -27 -122 -65 -178
-46 -67 -160 -109 -160 -59 0 19 37 216 50 264 12 45 70 321 80 380 8 46 2 67
-24 90 -9 7 -16 21 -16 31 0 17 -9 19 -110 19 -126 0 -123 3 -139 -101 -5 -35
-14 -82 -20 -104 -5 -22 -17 -76 -26 -120 -9 -44 -23 -102 -31 -129 -8 -26
-14 -60 -14 -75 -1 -66 -78 -166 -124 -159 -22 3 -26 34 -40 298 -16 322 -18
345 -36 365 -10 11 -22 29 -28 41 -10 20 -17 21 -114 17 -125 -6 -146 -17
-164 -89 -19 -74 -48 -154 -88 -237 -20 -41 -36 -81 -36 -89 0 -9 -7 -21 -15
-28 -8 -7 -15 -20 -15 -30 0 -10 -7 -23 -15 -30 -8 -7 -15 -21 -15 -31 0 -10
-27 -44 -60 -76 -58 -56 -60 -59 -60 -110 0 -47 -4 -56 -37 -88 -31 -30 -43
-35 -83 -35 -61 0 -70 10 -55 63 7 23 18 74 25 112 7 39 18 99 26 135 8 36 30
137 49 224 41 185 42 202 15 218 -11 7 -20 23 -20 36 0 22 -1 23 -122 20 -121
-3 -122 -3 -128 -28 -8 -36 -35 -36 -76 -1 -31 28 -41 31 -102 31 -122 0 -232
-58 -315 -168 -50 -66 -137 -242 -137 -278 0 -14 -7 -41 -15 -61 -8 -19 -15
-60 -15 -90 0 -32 -6 -63 -16 -78 -19 -29 -118 -105 -137 -105 -7 0 -18 -5
-23 -10 -15 -15 -119 -40 -166 -40 -57 0 -113 19 -140 47 -19 20 -22 33 -20
98 6 181 83 322 245 450 29 24 36 35 31 52 -3 12 -14 25 -23 28 -31 10 -89 73
-99 106 -11 43 2 179 24 238 19 50 65 106 105 127 36 18 123 19 138 0 32 -38
17 -152 -25 -186 -20 -18 -17 -48 5 -55 11 -3 21 -15 23 -27 12 -79 131 -25
164 74 23 70 21 89 -16 166 -41 83 -59 106 -106 138 -49 34 -173 60 -209 45z
m870 -661 c4 -16 2 -45 -5 -64 -9 -29 -25 -109 -46 -231 -11 -66 -37 -171 -45
-185 -5 -8 -13 -24 -18 -36 -12 -26 -68 -74 -87 -74 -8 0 -25 -7 -39 -16 -25
-17 -49 -10 -75 21 -26 31 -3 246 40 371 26 76 74 157 116 196 42 40 57 46
111 47 38 1 42 -1 48 -29z m719 -211 c3 -34 6 -93 6 -131 0 -38 5 -78 10 -88
11 -21 -5 -103 -25 -130 -7 -8 -15 -23 -18 -33 -4 -9 -17 -21 -31 -27 -13 -5
-27 -14 -31 -19 -8 -14 -110 -14 -136 -1 -10 6 -19 16 -19 22 0 19 42 58 62
58 26 0 58 36 58 66 0 14 -7 38 -16 54 -16 26 -16 30 9 81 13 30 35 79 47 109
21 50 55 98 71 99 3 1 9 -27 13 -60z m806 -701 c0 -32 -26 -112 -45 -141 -9
-14 -32 -33 -52 -42 -30 -14 -39 -15 -59 -4 -29 15 -30 31 -5 84 20 44 59 84
106 108 41 22 55 21 55 -5z"/>
<path d="M6935 2200 c-98 -12 -119 -22 -128 -61 -4 -19 -12 -48 -18 -65 -5
-17 -9 -45 -9 -62 0 -17 -4 -41 -10 -54 -5 -13 -14 -49 -20 -80 -6 -32 -19
-67 -29 -79 l-18 -22 -47 31 c-40 27 -56 32 -109 32 -61 0 -130 -19 -192 -52
-60 -32 -141 -124 -179 -202 -70 -143 -94 -236 -103 -396 -7 -130 14 -186 106
-282 58 -61 73 -71 116 -79 92 -18 178 12 267 90 25 23 50 41 56 41 13 0 67
-53 75 -74 9 -23 84 -56 128 -56 72 0 190 48 228 94 8 10 27 24 43 32 35 18
53 10 93 -44 46 -63 105 -86 218 -85 121 0 188 20 287 88 45 30 86 55 91 55 7
0 9 -13 5 -34 -5 -26 -3 -37 9 -44 9 -5 22 -20 29 -33 11 -23 17 -24 113 -27
97 -3 102 -2 120 22 12 15 28 70 42 143 13 65 29 145 37 178 7 33 27 128 45
210 17 83 40 164 50 182 18 29 89 73 118 73 15 0 79 -68 87 -92 13 -43 108
-28 144 22 40 56 37 83 -14 160 -49 75 -92 105 -135 97 -64 -14 -87 -21 -96
-32 -18 -23 -73 -35 -100 -23 -27 12 -39 34 -25 43 29 18 -1 25 -110 25 l-120
0 -11 -27 c-6 -16 -15 -50 -19 -78 -4 -27 -13 -77 -19 -110 -7 -33 -16 -82
-21 -110 -6 -27 -19 -90 -30 -138 -11 -49 -20 -102 -20 -118 0 -23 -14 -44
-62 -92 -140 -139 -272 -187 -387 -141 -50 20 -57 40 -36 112 19 63 39 92 66
92 40 0 164 51 214 89 61 47 123 125 148 189 20 50 22 148 4 178 -42 71 -80
124 -90 124 -6 0 -19 7 -29 16 -14 14 -38 17 -115 16 -98 0 -123 -7 -211 -57
-48 -26 -162 -155 -162 -182 0 -4 -6 -14 -13 -22 -39 -45 -92 -239 -103 -373
-5 -51 -11 -79 -20 -82 -8 -3 -14 -12 -14 -19 0 -32 -102 -84 -144 -73 -24 6
-25 9 -20 59 3 28 12 81 19 117 14 68 65 313 90 435 17 85 71 334 85 393 15
66 13 100 -9 112 -11 5 -21 20 -23 32 -3 26 -21 29 -113 18z m718 -555 c-3
-76 -22 -116 -94 -197 -49 -57 -103 -92 -126 -84 -22 9 -11 69 29 154 66 140
115 194 173 189 18 -2 20 -9 18 -62z m-965 10 c4 -29 -15 -127 -44 -231 -8
-28 -14 -62 -14 -76 0 -14 -7 -45 -15 -68 -8 -23 -15 -55 -15 -70 0 -15 -7
-33 -15 -40 -8 -7 -15 -18 -15 -26 0 -23 -65 -85 -104 -98 -47 -16 -67 -12
-97 20 l-22 23 18 118 c21 149 45 226 97 325 48 90 80 124 134 144 60 21 88
15 92 -21z"/>
<path d="M5476 1748 c-19 -100 -26 -134 -56 -273 -11 -49 -20 -102 -20 -116 0
-14 -6 -45 -14 -70 -7 -24 -21 -80 -31 -124 -9 -44 -21 -96 -26 -116 -28 -114
-30 -142 -9 -161 11 -10 20 -25 20 -32 0 -21 24 -26 124 -26 109 0 122 8 136
86 4 27 24 123 43 214 20 91 47 220 61 288 29 139 46 171 109 201 58 28 74 26
92 -9 9 -16 22 -30 30 -30 8 0 15 -8 15 -18 0 -65 107 -50 150 21 11 18 20 44
20 60 0 35 -83 160 -115 175 -28 13 -129 -1 -155 -21 -64 -50 -112 -40 -114
23 -1 12 -23 16 -122 18 l-120 3 -18 -93z"/>
</g>
</svg>
