<?xml version="1.0" encoding="utf-8"?>
<!-- Generator: Adobe Illustrator 16.0.0, SVG Export Plug-In . SVG Version: 6.00 Build 0)  -->
<svg version="1.2" baseProfile="tiny" id="Layer_1__x2B__Layer_2_xA0_Image_1_"
	 xmlns="http://www.w3.org/2000/svg" xmlns:xlink="http://www.w3.org/1999/xlink" x="0px" y="0px" width="639px" height="178px"
	 viewBox="0 0 639 178" xml:space="preserve">
<g>
	<g>
		<path fill="#FEFEFE" d="M320.528,179c-104.968,0-209.936-0.019-314.903,0.08c-3.518,0.003-4.752-0.422-4.74-4.453
			c0.169-56.482,0.166-112.965,0-169.447C0.875,1.382,1.901,0.918,5.318,0.919c210.103,0.09,420.205,0.088,630.307,0.014
			c3.26-0.001,4.514,0.231,4.501,4.19c-0.185,56.648-0.17,113.299-0.021,169.947c0.01,3.566-0.901,4.018-4.174,4.015
			C530.797,178.981,425.663,179,320.528,179z"/>
		<path fill-rule="evenodd" fill="#FE6C00" d="M220.611,108.399c-7.004,4.79-13.588,10.296-21.035,14.121
			c-8.507,4.369-17.828,4.91-26.583-0.127c-2.447-1.407-4.371-3.724-6.9-5.944c-5.092,6.229-12.13,9.848-20.798,9.164
			c-6.812-0.537-10.554-5.021-12.514-11.786c-5.584,7.413-12.451,12.393-21.375,11.971c-9.485-0.447-15.184-6.525-17.265-15.393
			c-9.572,9.008-19.443,16.384-33.028,16.607c-6.081,0.101-12.169,0.352-17.622-3.049c-8.448-5.268-13.345-16.258-11.427-25.891
			c1.958-9.839,5.875-18.74,13.765-25.28c3.197-2.649,7.009-4.557,10.649-6.87c-1.894-3.024-4.997-6.397-6.291-10.361
			c-2.998-9.186,0.686-17.182,6.205-24.423c5.61-7.36,13.208-11.562,22.356-12.02c9.21-0.461,18.503,2.939,21.873,14.021
			c1.596,5.249-1.439,14.197-6.195,16.713c-2.124,1.124-5.163,1.413-7.536,0.906c-2.129-0.454-3.817-1.984-1.385-5.068
			c1.958-2.483,2.738-6.102,3.395-9.346c0.633-3.126,0.515-6.97-3.621-7.419c-3.267-0.354-7.436-0.21-9.924,1.536
			c-7.279,5.108-8.479,13.214-7.162,21.272c1.134,6.935,5.358,12.078,12.314,13.574c-4.71,3.615-10.154,6.682-14.121,11.08
			c-7.362,8.163-11.549,17.812-8.332,29.174c1.395,4.928,4.712,7.311,10.161,7.553c8.66,0.386,16.129-2.258,22.583-7.674
			c1.659-1.393,2.921-4.105,3.077-6.303c0.902-12.724,4.976-24.38,12.917-34.149c6.957-8.56,16.605-12.68,27.882-10.813
			c2.496,0.412,4.669,2.77,7.183,4.353c-0.538-4.378,1.835-4.983,5.65-4.623c4.294,0.405,8.69,0.396,12.978-0.049
			c2.289-0.238,2.896,0.139,2.443,2.202c-2.506,11.406-5.087,22.795-7.565,34.207c-1.169,5.385-2.547,10.773-3.031,16.23
			c-0.171,1.934-0.098,5.418,3.967,5.572c4.88,0.185,8.56-1.699,8.641-5.41c0.111-5.16,1.832-9.18,6.482-11.814
			c0.888-0.503,1.534-1.703,1.952-2.722c4.928-12.01,9.681-24.094,14.797-36.022c0.735-1.714,2.968-3.479,4.805-3.891
			c4.914-1.102,9.982-1.539,15.007-2.07c0.614-0.065,1.661,0.766,1.943,1.423c0.564,1.316,0.968,2.789,1.038,4.217
			c0.814,16.513,1.554,33.028,2.315,49.583c9.089-2.228,10.352-9.778,11.76-17.427c1.853-10.063,4.048-20.063,6.032-30.103
			c0.89-4.504,4.798-3.956,7.729-4.336c3.031-0.392,6.239,0.69,9.302,0.407c4.176-0.387,4.419,1.937,3.826,4.788
			c-3.08,14.783-6.266,29.544-9.441,44.308c-0.657,3.054-1.556,6.424,2.151,7.906c3.475,1.389,6.136-0.383,8.523-3.261
			c5.264-6.343,4.946-14.321,6.737-21.633c2.394-9.774,4.028-19.732,6.259-29.55c0.234-1.032,2.25-2.274,3.504-2.35
			c4.683-0.278,9.404,0.098,14.086-0.183c3.287-0.197,3.703,1.469,3.185,3.891c-2.444,11.429-5.046,22.824-7.45,34.262
			c-1.229,5.848-1.839,11.837-3.285,17.623c-3.153,12.615-5.855,25.435-10.268,37.618c-3.935,10.862-17.483,14.494-26.056,11.752
			c-6.275-2.006-10.922-5.65-11.77-12.344c-0.991-7.817,2.156-13.988,9.286-17.773c2.783-1.477,5.681-2.736,8.395-4.349
			C229.778,127.703,222.465,123.074,220.611,108.399z"/>
		<path fill-rule="evenodd" fill="#FE6C00" d="M557.29,111.736c-6.701,5.189-12.457,10.521-20.732,12.499
			c-7.187,1.718-14.333,2.339-20.92-0.654c-4.109-1.867-7.223-5.926-10.854-9.062c-3.567,5.368-9.758,8.878-17.381,10.357
			c-7.25,1.407-13.257-1.963-17.68-10.665c-4.569,6.365-10.633,10.169-18.268,11.648c-8.601,1.668-19.837-7.389-20.399-17.107
			c-0.951-16.441,3.127-31.472,13.841-44.284c6.78-8.106,15.554-11.888,26.115-10.342c2.779,0.407,5.339,2.312,8.039,3.547
			c1.555-7.686,3.34-16.216,4.981-24.773c0.659-3.438,2.679-3.968,5.862-4.077c4.534-0.156,9.033-1.227,13.562-1.798
			c2.2-0.277,2.72,0.458,2.178,2.882c-5.276,23.599-10.554,47.202-15.29,70.913c-0.608,3.047-3.196,8.044,2.46,10.199
			c4.676,1.782,10.179-2.002,11.255-7.37c1.812-9.038,2.911-18.442,6.312-26.886c5.186-12.875,14.564-22.495,29.296-23.576
			c13.84-1.016,21.839,5.832,17.236,20.893c-3.769,12.332-13.4,18.798-25.503,21.875c-1.706,0.434-4.779,0.059-5.034,0.804
			c-0.855,2.509-1.335,5.468-0.858,8.052c1.484,8.052,2.555,8.287,14.154,8.278c6.593-0.005,20.085-11.043,21.287-16.956
			c2.23-10.974,4.57-21.926,6.977-32.863c2.178-9.896,3.146-10.531,13.271-9.561c0.162,0.016,0.317,0.125,0.479,0.136
			c2.638,0.17,5.276,0.33,7.914,0.492c-0.21,2.356-0.419,4.713-0.582,6.548c4.421-1.941,8.872-4.041,13.436-5.857
			c3.956-1.574,7.515-0.041,9.861,2.983c2.396,3.086,3.674,6.63,1.842,10.956c-1.883,4.446-5.279,6.338-9.434,6.538
			c-2.879,0.139-5.285-1.47-6.091-5.104c-0.927-4.188-4.835-4.689-8.566-2.107c-3.416,2.364-4.311,5.698-5.053,9.324
			c-2.994,14.636-6.017,29.267-9.017,43.901c-0.48,2.345-1.437,3.731-4.271,3.549c-4.148-0.267-8.343-0.294-12.488-0.008
			c-4.557,0.314-4.914-1.608-3.674-5.282C556.427,117.196,556.731,114.424,557.29,111.736z"/>
		<path fill-rule="evenodd" fill="#FE6C00" d="M347.076,32.382c-14.424,15.039-19.359,33.763-22.847,52.893
			c-1.207,6.622-0.771,13.698-0.11,20.472c1.042,10.703,9.425,9.535,15.003,4.527c8.004-7.184,12.326-16.803,15.53-26.75
			c3.931-12.2,6.248-24.8,5.264-37.716c-0.304-3.989-1.236-8.027-2.527-11.823c-2.439-7.177-9.316-7.958-15.029-7.666
			c-8.627,0.44-17.435,1.437-24.797,7.393c-10.531,8.519-17.647,18.232-14.646,32.725c0.433,2.09,0.747,3.815-3.243,3.091
			c-12.284-2.231-12.993-12.99-8.295-22.02c6.147-11.813,16.542-19.393,29.071-23.336c7.981-2.513,16.387-4.236,24.72-4.965
			c19.196-1.678,33.512,12.481,33.91,31.926c0.415,20.228-4.082,38.916-16.048,55.386c-7.447,10.248-16.911,17.899-30.281,18.389
			c-5.727,0.21-11.841,0.369-17.164-1.351c-8.866-2.864-12.437-11.158-13.34-19.442c-1.432-13.133,1.021-26.104,5.61-38.532
			c3.268-8.851,6.857-17.422,13.477-24.646C328.438,33.182,336.637,30.453,347.076,32.382z"/>
		<path fill-rule="evenodd" fill="#FE6C00" d="M409.005,60.708c5.145-1.957,10.248-4.285,15.582-5.805
			c4.367-1.245,7.063,1.522,9.121,5.259c2.556,4.64,1.23,8.711-1.756,12.205c-2.359,2.762-5.978,4.43-9.449,2.461
			c-1.97-1.117-3.68-3.69-4.294-5.939c-0.718-2.628-1.768-2.321-3.711-1.945c-5.278,1.02-8.238,4.151-9.47,10.3
			c-3.001,14.968-5.969,29.944-9.146,44.875c-0.24,1.129-1.991,2.68-3.118,2.748c-4.98,0.301-9.993,0.004-14.985,0.184
			c-2.697,0.097-3.135-1.168-2.672-3.314c4.618-21.413,9.334-42.806,13.785-64.254c0.608-2.932,1.326-3.896,4.451-3.588
			c4.291,0.421,8.707,0.523,12.97-0.019c3.864-0.491,4.426,0.694,3.354,3.931C409.278,58.984,409.109,60.235,409.005,60.708z"/>
		<path fill-rule="evenodd" fill="#FEFEFE" d="M115,97.46c0.954-9.842,3.115-21.937,12.468-31.307
			c1.41-1.411,3.452-2.448,5.391-3.018c3.19-0.938,6.564,1.619,6.035,4.933c-1.483,9.275-3.452,18.474-5.271,27.694
			c-0.468,2.37-0.866,4.792-1.692,7.045c-1.89,5.15-7.618,9.163-11.525,8.341C116.078,110.238,115,108.038,115,97.46z"/>
		<path fill-rule="evenodd" fill="#FEFEFE" d="M189.938,71.468c1.094,10.888,2.286,20.596,2.981,30.339
			c0.559,7.83-7.688,14.327-15.112,11.931c-1.856-0.599-3.457-2.739-4.576-4.543c-0.513-0.828-1.779-3.651,2.313-2.595
			c4.301,1.11,8.538-5.255,6.204-8.996c-1.61-2.58-1.796-4.439-0.479-7.104C184.182,84.611,186.742,78.551,189.938,71.468z"/>
		<path fill-rule="evenodd" fill="#FEFEFE" d="M250.854,129.47c-1.203,4.274-2.108,8.663-3.688,12.792
			c-1.696,4.433-5.075,5.662-8.413,3.688c-3.447-2.038-4.001-6.133-0.492-9.518c3.296-3.18,7.379-5.543,11.116-8.266
			C249.869,128.601,250.362,129.035,250.854,129.47z"/>
		<path fill-rule="evenodd" fill="#FEFEFE" d="M470.85,61.997c4.174,1.467,6.238,3.665,5.661,6.837
			c-1.965,10.819-4.112,21.623-6.76,32.291c-0.774,3.122-3.021,6.191-5.341,8.548c-3.773,3.833-11.036,1.858-11.453-3.465
			c-0.535-6.828-0.079-14,1.514-20.649c1.397-5.833,4.459-11.467,7.743-16.573C464.115,66.027,467.907,64.286,470.85,61.997z"/>
		<path fill-rule="evenodd" fill="#FEFEFE" d="M547.123,66.249c-0.97,9.839-7.49,19.682-16.454,22.423
			c-2.218,0.678-4.562,1.125-2.739-2.718c3.363-7.088,6.331-14.378,10.02-21.287c0.885-1.655,4.171-3.211,5.952-2.848
			C545.453,62.136,546.441,65.223,547.123,66.249z"/>
	</g>
</g>
</svg>
