<?xml version="1.0" encoding="utf-8"?>
<!-- Generator: Adobe Illustrator 16.0.0, SVG Export Plug-In . SVG Version: 6.00 Build 0)  -->
<svg version="1.2" baseProfile="tiny" id="Layer_0_xA0_Image_1_"
	 xmlns="http://www.w3.org/2000/svg" xmlns:xlink="http://www.w3.org/1999/xlink" x="0px" y="0px" width="225px" height="225px"
	 viewBox="0 0 225 225" xml:space="preserve">
<g>
	<g>
		<path fill="#28AAE1" d="M216,34c0,0.667,0,1.333,0,2c-0.518,0.771-0.783,1.633-0.924,2.543C214.9,54.029,215.05,69.514,215,85
			c0,4.763,0,9.524,0,14.287c0,35.419,0.018,70.835-0.039,106.252c-0.004,2.355,0.93,5.1-1.729,6.84
			c-5.332,1.157-10.595,0.037-15.713-1.072c-25.53-5.534-50.937-11.625-76.43-17.331c-2.852-0.638-6.109-1.1-6.592-5.019
			c0.006-2.168,0.001-4.332,0.002-6.5c-0.554-53.115,1.177-106.243-1-159.341c0-0.626,0-1.256,0-1.882
			c0.037-4.253-0.583-8.73,3.871-11.5c9.998-1.059,19.36,2.301,28.88,4.357c20.321,4.392,40.544,9.224,60.842,13.727
			C210.889,28.66,214.581,29.707,216,34z"/>
		<path fill-rule="evenodd" fill="#FEFEFE" d="M115.959,189.113c4.771,1.475,9.475,3.242,14.327,4.376
			c26.567,6.206,53.171,12.26,79.769,18.343c0.624,0.143,1.312,0.009,1.97,0.004c1.345-0.42,2.693-0.938,3.976,0.164
			c-0.166,0.667-0.228,1.851-0.516,1.908c-1.119,0.225-2.311,0.092-3.477,0.092c-67.908,0-135.816-0.031-203.724,0.09
			c-3.496,0.006-4.404-0.584-4.392-4.295C4.053,159.196,4,108.599,4,58c1.619-0.528,2.732,0.378,3.001,1.694
			c1.237,6.039,4.021,11.494,6.225,17.176c0.397,40.305,0.067,80.606,0.178,120.907c0.006,2.164-0.037,4.33,0.08,6.493
			c0.204,3.766,2.2,5.424,5.913,4.904c2.142-0.3,4.271-0.699,6.377-1.213c24.426-5.954,48.923-11.604,73.398-17.347
			c10.214-2.396,10.417-2.71,10.419-12.932c0.01-51.461,0.006-102.921,0.003-154.381c0-0.999,0.01-1.998-0.02-2.997
			c-0.191-6.446-1.997-7.976-8.464-6.646c-6.032,1.239-11.992,2.824-18.035,4.003c-3.153,0.574-6.401,0.521-9.515,1.403
			c-1.786,0.362-3.593,0.23-5.394,0.2c-10.385-4.609-21.093-6.874-32.271-3.444C27.785,18.31,20.861,22.954,14.79,28.86
			c-0.44,0.507-0.793,1.092-1.32,1.521c-1.245,0.839-2.875,1.246-3.33,2.974c-0.835,2.137-0.705,4.5-1.552,6.64
			C7.721,42.768,8.877,46.866,4,47c0-12.167,0.069-24.334-0.064-36.499C3.912,8.35,4.354,7.938,6.5,7.939c69,0.073,138,0.073,207,0
			c2.146-0.002,2.611,0.407,2.566,2.562C215.898,18.331,216,26.167,216,34c-3.034-1.236-5.967-2.914-9.118-3.641
			c-27.808-6.41-55.652-12.666-83.499-18.907c-1.74-0.391-3.592-0.28-5.392-0.402c-1.878,0.438-2.63,1.519-2.546,3.533
			c0.088,2.118,0.412,4.291-0.287,6.392c0.002,0.352,0.005,0.704,0.008,1.057c0.622,1.785,0.318,3.634,0.318,5.45
			c0.02,51.458,0.016,102.916,0.016,154.369C115.72,184.265,114.998,186.741,115.959,189.113z"/>
		<path fill-rule="evenodd" fill="#BEDADB" d="M214.834,37.063c0.389-0.354,0.777-0.709,1.166-1.063c0,57,0,114,0,171
			c-3.008-0.906-1.404-3.383-1.41-4.984c-0.119-34.217-0.09-68.434-0.09-102.65c0-4.84,0-9.681,0-14.523
			C214.711,68.916,214.068,52.984,214.834,37.063z"/>
		<path fill-rule="evenodd" fill="#FDFEFE" d="M4,47c1-2.667,2-5.334,3-8c0.366-0.342,0.799-0.536,1.3-0.587
			c2.099,0.597,3.207,2.304,4.415,3.914c0.511,1.579,0.392,3.187,0.222,4.799c-1.975,4.62-2.765,9.277-0.521,14.064
			c0.709,1.514,0.71,3.177,0.853,4.812c-0.394,3.438,1.399,7.403-2.427,9.999C8.562,70,6.281,64,4,58C4,54.333,4,50.667,4,47z"/>
		<path fill-rule="evenodd" fill="#23A3D5" d="M214.834,99.002c0.056,34.125,0.096,68.251,0.209,102.376
			c0.006,1.875,0.623,3.748,0.957,5.622c0,1.667,0,3.333,0,5c-1.325-0.055-2.65-0.109-3.976-0.164
			c0.659-2.464,1.883-4.925,1.892-7.392c0.127-35.147,0.09-70.295,0.094-105.442C214.284,98.282,214.559,98.283,214.834,99.002z"/>
		<path fill-rule="evenodd" fill="#FEFEFE" d="M204.924,112.867c0,7.822-0.11,15.647,0.054,23.467
			c0.067,3.214-0.862,4.033-4.054,3.261c-24.373-5.893-48.763-11.718-73.191-17.372c-2.9-0.671-3.709-1.814-3.688-4.636
			c0.114-15.645,0.114-31.291,0.005-46.937c-0.021-3.106,0.66-4.112,3.985-3.312c24.339,5.857,48.688,11.672,73.108,17.178
			c3.578,0.807,4.055,2.359,3.998,5.384c-0.144,7.653-0.047,15.312-0.047,22.968C205.037,112.867,204.98,112.867,204.924,112.867z"
			/>
		<path fill-rule="evenodd" fill="#FDFEFE" d="M203.829,157.329c-10.307-2.522-19.802-4.87-29.308-7.17
			c-15.31-3.703-30.627-7.377-45.941-11.057c-0.483-0.116-1.256,0.011-1.431-0.267c-0.851-1.353-1.542-2.805-2.291-4.221
			c1.151-0.342,2.421-1.188,3.437-0.95c23.412,5.477,46.799,11.069,70.188,16.646c1.936,0.461,4.031,0.651,5.722,1.574
			c0.917,0.5,1.526,2.282,1.524,3.485C205.728,156.115,204.32,156.858,203.829,157.329z"/>
		<path fill-rule="evenodd" fill="#FDFEFE" d="M206.119,172.613c-1.342,0.224-2.789,0.891-4.014,0.604
			c-19.216-4.504-38.402-9.137-57.598-13.727c-5.485-1.311-10.967-2.643-16.477-3.833c-2.24-0.484-4.049-1.438-3.025-3.843
			c0.395-0.927,2.792-1.75,4.007-1.466c24.519,5.734,49.005,11.613,73.473,17.563c1.425,0.347,2.643,1.548,3.957,2.352
			C206.335,171.047,206.228,171.83,206.119,172.613z"/>
		<path fill-rule="evenodd" fill="#FDFEFE" d="M203.959,70.983c-18.057-4.255-35.178-8.285-52.297-12.326
			c-7.906-1.866-15.773-3.914-23.727-5.555c-2.957-0.61-3.62-2.267-2.905-4.531c0.202-0.642,2.563-1.134,3.738-0.858
			c24.528,5.731,49.028,11.588,73.536,17.407c2.233,0.53,4.348,1.25,3.486,4.146C205.536,70.125,204.293,70.688,203.959,70.983z"/>
		<path fill-rule="evenodd" fill="#FCFDFE" d="M126.356,32.181c18.76,4.528,36.491,8.812,54.226,13.088
			c7.256,1.749,14.49,3.601,21.786,5.159c2.507,0.536,4.311,1.414,3.343,4.074c-0.281,0.772-2.79,1.354-4.05,1.057
			c-24.417-5.748-48.81-11.599-73.163-17.61c-1.422-0.352-2.634-2.132-3.562-3.505C124.707,34.105,125.98,32.753,126.356,32.181z"/>
		<path fill-rule="evenodd" fill="#FCFDFE" d="M204.1,190.697c-17.806-4.18-34.75-8.155-51.693-12.136
			c-7.896-1.854-15.803-3.671-23.676-5.624c-1.342-0.333-2.846-1.01-3.683-2.019c-0.546-0.657-0.455-2.763,0.128-3.214
			c0.793-0.614,2.4-0.562,3.537-0.29c19.334,4.642,38.649,9.357,57.967,14.067c5.639,1.375,11.312,2.641,16.864,4.308
			c1.026,0.309,1.69,2.248,2.182,3.562C205.826,189.62,204.398,190.459,204.1,190.697z"/>
		<path fill-rule="evenodd" fill="#23A3D5" d="M115.16,182.998c-0.053-33.328-0.138-66.655-0.148-99.982
			c-0.007-20.328,0.099-40.656,0.154-60.984c0.277,2.281,0.797,4.562,0.799,6.844c0.045,51.374,0.033,102.748,0.031,154.122
			C115.719,183.718,115.439,183.718,115.16,182.998z"/>
		<path fill-rule="evenodd" fill="#23A3D5" d="M214.834,37.063c0,15.979,0,31.956,0,47.935c-0.275,0.719-0.55,0.72-0.824,0
			c-0.004-13.877-0.041-27.755,0.027-41.633C214.048,41.264,214.557,39.164,214.834,37.063z"/>
		<path fill-rule="evenodd" fill="#23A4D6" d="M214.01,84.998c0.274,0.001,0.549,0.001,0.824,0c0,4.668,0,9.336,0,14.004
			l-0.412-0.001l-0.413,0.001C214.01,94.334,214.01,89.666,214.01,84.998z"/>
		<path fill-rule="evenodd" fill="#26A8DE" d="M115.158,20.975c-0.073-2.588-0.399-5.208-0.076-7.744
			c0.107-0.837,1.892-1.46,2.909-2.181C117.047,14.357,116.103,17.666,115.158,20.975z"/>
		<path fill-rule="evenodd" fill="#25A7DB" d="M115.16,182.998c0.279,0,0.558,0,0.836-0.001c-0.012,2.038-0.025,4.077-0.037,6.116
			C115.692,187.074,115.426,185.036,115.16,182.998z"/>
		<path fill-rule="evenodd" fill="#28AAE1" d="M10.843,76.001c0-3.675,0-7.35,0-11.024c-0.677-5.986-1.383-11.973,0-17.959
			c-0.001-1.67-0.002-3.34-0.003-5.01c-2.942-8.133-1.931-10.253,6.101-12.76c1.905-0.595,3.817-1.167,5.622-2.028
			c0.482-0.303,1.004-0.518,1.555-0.662c9.682-0.268,18.738-3.56,27.959-5.988c1.576-0.415,3.065-1.104,4.742-1.076
			c5.396-2.905,11.701-0.232,17.15-2.798c2.873-0.373,5.646-1.282,8.532-1.592c5.357-1.153,10.716-2.301,16.071-3.465
			c1.789-0.39,3.555-0.893,5.354-1.222c7.828-1.435,8.074-1.214,8.076,6.699c0.019,56.113,0.015,112.227,0.116,168.34
			c0.006,3.56-0.847,4.993-4.719,5.868c-28.514,6.442-56.938,13.28-85.391,19.991c-11.02,2.599-11.004,2.596-11.001-8.445
			c0.009-40.795,0.008-81.59,0-122.384C11.007,78.991,10.9,77.496,10.843,76.001z"/>
		<path fill-rule="evenodd" fill="#FDFEFE" d="M13,28c5.661-6.611,12.879-11.038,20.941-13.857
			c11.833-4.139,23.295-2.852,34.064,3.737c-4.224,2.686-9.037,2.051-13.416,1.438c-11.465-1.604-21.615,1.204-31.201,7.27
			C20.256,28.57,16.883,30.67,13,28z"/>
		<path fill-rule="evenodd" fill="#FAFDFE" d="M13,28c4.079-1.621,8.425-2.779,12.183-4.954c9.774-5.658,19.91-7.592,31.055-5.271
			c3.767,0.785,7.836,0.112,11.768,0.105c1.702-0.332,3.404-0.663,5.106-0.994c0.456-0.327,0.829-0.233,1.132,0.223
			c-5.635,1.333-11.271,2.666-16.906,4c-11.471,1.131-22.75,3.059-33.321,7.959l0.057-0.021c-4.024,0.159-8.056,2.308-12.071-0.044
			C12.335,28.669,12.667,28.335,13,28z"/>
		<path fill-rule="evenodd" fill="#F5FAFD" d="M12.003,29.004c4.023,0.015,8.047,0.029,12.071,0.044
			c-1.095,0.354-2.172,0.78-3.288,1.049c-9.681,2.331-9.683,2.323-9.947,11.911c-0.945-1.003-1.891-2.007-2.837-3.01
			C6.937,36.466,7.399,34.152,8.999,32C10,31.001,11.001,30.002,12.003,29.004z"/>
		<path fill-rule="evenodd" fill="#FDFEFE" d="M74.244,17.109c-0.378-0.074-0.757-0.147-1.134-0.222
			c3.13-0.595,6.259-1.188,9.389-1.783C79.749,15.772,76.996,16.44,74.244,17.109z"/>
		<path fill-rule="evenodd" fill="#FAFCFE" d="M8.999,32c-0.332,2.332-0.665,4.665-0.997,6.998C7.668,38.999,7.334,38.999,7,39
			C7.667,36.666,8.333,34.333,8.999,32z"/>
		<path fill-rule="evenodd" fill="#FAFCFE" d="M10.843,47.018c0,5.986,0,11.973,0,17.959C9.002,58.99,7.797,53.004,10.843,47.018z"
			/>
		<path fill-rule="evenodd" fill="#F5FAFD" d="M24.017,29.068c9.919-7.622,21.352-8.914,33.32-7.96
			C46.231,23.762,35.124,26.415,24.017,29.068z"/>
	</g>
</g>
</svg>
