<?xml version="1.0" encoding="utf-8"?>
<!-- Generator: Adobe Illustrator 16.0.0, SVG Export Plug-In . SVG Version: 6.00 Build 0)  -->
<svg version="1.2" baseProfile="tiny" id="Layer_0_xA0_Image_1_"
	 xmlns="http://www.w3.org/2000/svg" xmlns:xlink="http://www.w3.org/1999/xlink" x="0px" y="0px" width="128px" height="128px"
	 viewBox="0 0 128 128" xml:space="preserve">
<g>
	<g>
		<path fill="#FCFDFE" d="M64.5,107.5c-20,0-40-0.053-60,0.066C1.999,107.581,1.426,107,1.435,104.5c0.101-29.333,0.101-58.667,0-88
			C1.426,14,2,13.431,4.5,13.436c40.333,0.091,80.666,0.091,121,0c2.5-0.005,3.074,0.564,3.064,3.064
			c-0.101,29.333-0.101,58.667,0,88c0.01,2.5-0.563,3.08-3.064,3.066C105.167,107.448,84.834,107.5,64.5,107.5z M63.552,72.502
			c-6.021,1.614-5.612,7.577-8.199,11.66c3.863-1.046,7.37-2.381,10.631-4.167c0.889-0.487,1.038-2.328,1.527-3.548
			c1.666-0.531,3.774-0.591,4.93-1.67C80.693,67.07,88.768,59.172,96.863,51.3c4.037-3.925,3.855-4.632-1.492-6.789
			c0.031-0.681,0.061-1.362,0.092-2.044c1.271,0.543,2.504,1.249,3.829,1.582c1.319,0.33,3.063,0.851,4.032,0.282
			c1.801-1.057,3.77-2.585,4.553-4.399c0.769-1.779,0.906-4.706-0.102-6.102c-0.828-1.148-4.278-1.711-5.625-0.924
			c-3.515,2.056-7.096,4.607-6.607,9.64c-0.33-0.062-0.66-0.123-0.989-0.185c-0.952-0.039-2.325-0.51-2.793-0.054
			c-9.554,9.32-19.003,18.747-28.474,28.152C63.375,71.141,63.464,71.821,63.552,72.502z M92.542,60.579
			c-1.296,1.982-2.591,3.964-3.886,5.945c-0.086,8.276-0.172,16.553-0.258,24.829c-16.484,0.021-32.97,0.015-49.456,0.087
			c-3.589,0.016-3.39-2.401-3.392-4.78c-0.013-13.827,0.111-27.656-0.112-41.479c-0.061-3.788,1.107-4.809,4.815-4.75
			c14.823,0.235,29.652,0.089,44.478,0.252c3.919,0.043,6.108-1.888,7.608-5.133c-2.427-0.987-4.84-2.788-7.283-2.831
			c-15.154-0.267-30.317-0.146-45.477-0.137c-8.498,0.006-12.076,3.525-12.098,12.004c-0.037,14.66-0.021,29.32-0.009,43.98
			c0.006,7.069,3.567,10.972,10.556,11.021c16.158,0.112,32.318,0.07,48.478-0.017c5.245-0.028,7.849-2.559,8.896-8.086
			c0.064-10.105,0.15-20.21,0.154-30.315c0.001-0.84-0.543-1.68-0.834-2.52C93.996,59.293,93.27,59.937,92.542,60.579z"/>
		<path fill-rule="evenodd" fill="#2EADE2" d="M95.402,91.484c-1.047,5.527-3.65,8.058-8.896,8.086
			c-16.159,0.087-32.319,0.129-48.478,0.017c-6.989-0.049-10.55-3.951-10.556-11.021c-0.012-14.66-0.028-29.32,0.009-43.98
			c0.021-8.479,3.6-11.998,12.098-12.004c15.16-0.01,30.322-0.13,45.477,0.137c2.443,0.043,4.856,1.844,7.283,2.831
			c-1.5,3.245-3.689,5.176-7.608,5.133c-14.825-0.163-29.654-0.017-44.478-0.252c-3.708-0.059-4.875,0.962-4.815,4.75
			c0.223,13.823,0.099,27.652,0.112,41.479c0.002,2.379-0.197,4.796,3.392,4.78c16.485-0.072,32.971-0.065,49.456-0.087
			c1.1,0.323,2.197,0.896,3.301,0.903C92.932,92.266,94.168,91.764,95.402,91.484z"/>
		<path fill-rule="evenodd" fill="#30B0E2" d="M95.371,44.511c5.348,2.157,5.529,2.864,1.492,6.789
			c-8.096,7.872-16.17,15.771-24.422,23.478c-1.155,1.079-3.264,1.139-4.93,1.67l0.028,0.088c-0.332-1.185-0.663-2.368-0.995-3.552
			c-1.086-0.841-2.172-1.683-3.258-2.523c9.471-9.405,18.92-18.832,28.474-28.152c0.468-0.456,1.841,0.015,2.793,0.054
			C94.826,43.078,95.099,43.795,95.371,44.511z M90.196,50.189c-0.337,0.338-0.673,0.675-1.011,1.013
			c-0.322,0.344-0.645,0.688-0.967,1.031c-0.348,0.321-0.695,0.642-1.043,0.962c-0.344,0.324-0.688,0.649-1.031,0.974
			c-0.32,0.348-0.641,0.695-0.962,1.044c-0.302,0.358-0.604,0.718-0.907,1.077c-0.949,0.716-1.898,1.431-2.848,2.147
			c-0.333,0.327-0.667,0.653-1,0.98c-0.339,0.328-0.677,0.656-1.016,0.985c-0.335,0.33-0.67,0.661-1.006,0.992
			c-0.33,0.338-0.659,0.676-0.988,1.013c-0.342,0.325-0.683,0.65-1.023,0.976c-0.343,0.324-0.686,0.647-1.029,0.972
			c-0.206,0.223-0.412,0.445-0.619,0.668c0.345-0.077,0.689-0.153,1.029-0.236c0.324-0.345,0.648-0.688,0.967-1.039
			c0.326-0.341,0.65-0.681,0.97-1.027c0.355-0.309,0.711-0.616,1.06-0.931c0.332-0.335,0.664-0.67,0.989-1.013
			c0.331-0.34,0.663-0.68,0.987-1.028c0.335-0.333,0.67-0.666,1.006-1c0.938-0.731,1.873-1.463,2.809-2.194
			c0.346-0.322,0.691-0.645,1.035-0.968s0.688-0.647,1.029-0.972c0.332-0.335,0.664-0.67,0.994-1.006
			c0.332-0.334,0.664-0.669,0.994-1.004c0.345-0.323,0.689-0.646,1.032-0.969c0.339-0.33,0.677-0.66,1.014-0.991
			c0.198-0.226,0.396-0.451,0.595-0.676C90.902,50.043,90.549,50.116,90.196,50.189z"/>
		<path fill-rule="evenodd" fill="#09AFDB" d="M95.402,91.484c-1.234,0.279-2.471,0.781-3.703,0.772
			c-1.104-0.008-2.201-0.58-3.301-0.903c0.086-8.276,0.172-16.553,0.258-24.829c4.62,0.191,5.938-1.775,3.886-5.945
			c0.728-0.643,1.454-1.286,2.181-1.93c0.291,0.84,0.835,1.68,0.834,2.52C95.553,71.274,95.467,81.379,95.402,91.484z"/>
		<path fill-rule="evenodd" fill="#31B1E2" d="M95.543,42.546c-0.488-5.032,3.093-7.584,6.607-9.64
			c1.347-0.787,4.797-0.225,5.625,0.924c1.008,1.396,0.87,4.322,0.102,6.102c-0.783,1.814-2.752,3.343-4.553,4.399
			c-0.969,0.568-2.713,0.048-4.032-0.282c-1.325-0.333-2.558-1.039-3.829-1.582L95.543,42.546z"/>
		<path fill-rule="evenodd" fill="#27B1E1" d="M67.512,76.447c-0.489,1.22-0.639,3.061-1.527,3.548
			c-3.261,1.786-6.769,3.121-10.631,4.167c2.587-4.083,2.178-10.046,8.199-11.659l-0.087-0.037c-0.56,3.276,1.16,4.271,4.075,4.069
			L67.512,76.447z"/>
		<path fill-rule="evenodd" fill="#25B2DF" d="M92.542,60.579c2.052,4.17,0.734,6.137-3.886,5.945
			C89.951,64.543,91.246,62.562,92.542,60.579z"/>
		<path fill-rule="evenodd" fill="#31B1E2" d="M63.287,70.46c1.086,0.841,2.172,1.683,3.258,2.525
			c-1.026-0.173-2.053-0.347-3.08-0.52l0.087,0.037C63.464,71.821,63.375,71.141,63.287,70.46z"/>
		<path fill-rule="evenodd" fill="#31B1E2" d="M95.371,44.511c-0.272-0.716-0.545-1.433-0.817-2.149
			c0.329,0.062,0.659,0.123,0.989,0.185l-0.08-0.079C95.432,43.148,95.402,43.83,95.371,44.511z"/>
		<path fill-rule="evenodd" fill="#FCFDFE" d="M63.465,72.466c1.027,0.173,2.054,0.347,3.08,0.52
			c0.332,1.182,0.663,2.365,0.995,3.55C64.625,76.736,62.905,75.742,63.465,72.466z"/>
		<path fill-rule="evenodd" fill="#A2DCF1" d="M81.428,58.437c0.949-0.716,1.898-1.431,2.848-2.146l0.289,0.266
			c-0.938,0.73-1.873,1.462-2.811,2.193L81.428,58.437z"/>
		<path fill-rule="evenodd" fill="#A2DCF1" d="M75.781,64.793c-0.346,0.077-0.69,0.153-1.035,0.23
			c0.207-0.223,0.413-0.445,0.621-0.667C75.506,64.502,75.643,64.647,75.781,64.793z"/>
		<path fill-rule="evenodd" fill="#A2DCF1" d="M76.748,63.754c-0.324,0.345-0.648,0.688-0.97,1.036
			c-0.136-0.143-0.272-0.288-0.411-0.434c0.342-0.325,0.685-0.648,1.027-0.973C76.512,63.508,76.629,63.631,76.748,63.754z"/>
		<path fill-rule="evenodd" fill="#A2DCF1" d="M76.395,63.384c0.341-0.325,0.682-0.65,1.023-0.976l0.3,0.319
			c-0.325,0.34-0.649,0.68-0.973,1.023C76.629,63.631,76.512,63.508,76.395,63.384z"/>
		<path fill-rule="evenodd" fill="#A2DCF1" d="M77.418,62.408c0.329-0.337,0.658-0.675,0.988-1.013
			c0.125,0.134,0.248,0.267,0.371,0.401c-0.354,0.308-0.71,0.615-1.062,0.927C77.718,62.728,77.418,62.408,77.418,62.408z"/>
		<path fill-rule="evenodd" fill="#A2DCF1" d="M78.406,61.396c0.336-0.331,0.671-0.662,1.007-0.992
			c0.119,0.127,0.237,0.254,0.354,0.382c-0.332,0.335-0.664,0.67-0.992,1.008C78.654,61.662,78.531,61.529,78.406,61.396z"/>
		<path fill-rule="evenodd" fill="#A2DCF1" d="M80.755,59.758c-0.331,0.34-0.663,0.68-0.991,1.023
			c-0.113-0.124-0.231-0.251-0.351-0.378c0.338-0.329,0.676-0.657,1.015-0.985C80.428,59.419,80.755,59.758,80.755,59.758z"/>
		<path fill-rule="evenodd" fill="#A2DCF1" d="M81.754,58.749c-0.336,0.334-0.671,0.667-1.003,1.005
			c0.004,0.004-0.323-0.335-0.323-0.336c0.333-0.327,0.667-0.653,1-0.98C81.428,58.437,81.754,58.749,81.754,58.749z"/>
		<path fill-rule="evenodd" fill="#A2DCF1" d="M84.275,56.29c0.303-0.359,0.605-0.719,0.911-1.074
			c0.142,0.124,0.278,0.247,0.411,0.372c-0.344,0.322-0.689,0.645-1.034,0.967C84.564,56.556,84.275,56.29,84.275,56.29z"/>
		<path fill-rule="evenodd" fill="#A2DCF1" d="M86.629,54.616c-0.344,0.323-0.688,0.647-1.031,0.972
			c-0.133-0.125-0.27-0.248-0.411-0.372c0.317-0.352,0.638-0.699,0.962-1.044C86.311,54.321,86.47,54.469,86.629,54.616z"/>
		<path fill-rule="evenodd" fill="#A2DCF1" d="M87.623,53.61c-0.332,0.335-0.664,0.67-0.995,1.005
			c-0.158-0.146-0.317-0.294-0.479-0.443c0.34-0.327,0.684-0.652,1.031-0.974C87.33,53.337,87.477,53.474,87.623,53.61z"/>
		<path fill-rule="evenodd" fill="#A2DCF1" d="M88.617,52.606c-0.332,0.334-0.664,0.669-0.995,1.004
			c-0.146-0.137-0.292-0.273-0.442-0.412c0.344-0.323,0.691-0.644,1.039-0.965C88.352,52.357,88.484,52.481,88.617,52.606z"/>
		<path fill-rule="evenodd" fill="#A2DCF1" d="M88.219,52.233c0.322-0.344,0.645-0.688,0.967-1.031
			c0.155,0.145,0.31,0.29,0.463,0.436c-0.344,0.322-0.688,0.645-1.032,0.968C88.484,52.481,88.352,52.357,88.219,52.233z"/>
		<path fill-rule="evenodd" fill="#A2DCF1" d="M89.186,51.202c0.338-0.338,0.674-0.675,1.011-1.013
			c0.153,0.155,0.308,0.308,0.466,0.457c-0.338,0.33-0.676,0.66-1.014,0.991C89.495,51.492,89.341,51.347,89.186,51.202z"/>
		<path fill-rule="evenodd" fill="#A2DCF1" d="M90.196,50.189c0.353-0.073,0.706-0.146,1.06-0.22
			c-0.199,0.225-0.396,0.45-0.594,0.676C90.504,50.497,90.35,50.345,90.196,50.189z"/>
	</g>
</g>
</svg>
