<?xml version="1.0" encoding="utf-8"?>
<!-- Generator: Adobe Illustrator 16.0.0, SVG Export Plug-In . SVG Version: 6.00 Build 0)  -->
<svg version="1.2" baseProfile="tiny" id="Layer_0_xA0_Image_1_"
	 xmlns="http://www.w3.org/2000/svg" xmlns:xlink="http://www.w3.org/1999/xlink" x="0px" y="0px" width="512px" height="512px"
	 viewBox="0 0 512 512" xml:space="preserve">
<g>
	<g>
		<path fill="#FEFEFE" d="M258.5,482.5c-68.643,0-137.285-0.027-205.928,0.085c-3.264,0.006-4.179-0.438-4.176-4.01
			c0.121-147.615,0.121-295.23,0.003-442.845c-0.003-3.655,0.812-4.326,4.368-4.323c130.787,0.11,261.575,0.116,392.362-0.02
			c4.032-0.004,4.453,1.224,4.45,4.738C449.484,155.584,449.5,275.042,449.5,394.5c-0.475,0.346-0.921,0.313-1.341-0.096
			c-1.359-2.926-1.521-6.112-1.899-9.234c-0.427-3.528-0.949-7.257-3.266-9.841c-5.813-6.486-11.666-12.743-19.479-17.364
			c-18.039-10.668-38.366-13.905-57.921-19.759c-11.276-3.375-22.779-6.243-33.147-12.249c-5.166-2.993-5.357-2.684-8.523,2.49
			c-23.135,37.806-46.036,75.751-68.567,113.919c-5.318,9.01-6.016,8.989-11.362,0.205c-2.672-4.392-6.089-8.386-7.304-13.563
			c-0.342-1.917,0.884-3.062,2.073-4.249c10.753-10.733,21.465-21.508,32.228-32.233c-10.295,10.251-20.546,20.547-30.862,30.775
			c-1.422,1.409-2.598,3.781-5.352,2.355c-4.698-4.49-6.583-10.736-9.872-16.096c-7.67-12.498-15.923-24.616-23.608-37.105
			c-8.995-14.615-17.46-29.547-26.595-44.079c-2.231-3.55-3.959-4.256-7.939-2.456c-13.52,6.114-27.561,10.848-41.812,15.045
			c-14.991,4.416-30.283,7.976-44.654,14.304c-9.277,4.085-17.36,9.74-23.183,18.334c-5.247,7.743-5.595,16.622-6.208,25.393
			c-0.428,6.138-0.359,12.342-0.022,18.49c0.558,10.168,3.616,18.312,14.39,22.868c8.317,3.519,15.625,9.44,24.389,12.397
			c6.93,2.338,13.654,5.323,20.925,6.562c1.984,0.338,3.921,0.854,5.769,1.609c16.663,6.816,34.33,9.339,51.911,12.29
			c14.125,2.371,28.369,3.751,42.585,5.415c2.753,0.798,5.559,0.45,8.355,0.396c10.486,1.468,21.031,0.766,31.55,0.939
			c2.449,0.041,4.959-0.279,7.264,0.938C258.64,481.299,258.797,481.832,258.5,482.5z"/>
		<path fill-rule="evenodd" fill="#28AAE1" d="M237.485,428.535c3.409,6.061,6.787,12.141,10.241,18.176
			c1.895,3.311,2.875,1.158,3.988-0.709c8.327-13.983,16.642-27.975,25.044-41.913c15.73-26.092,31.593-52.105,47.198-78.272
			c2.188-3.67,3.952-3.844,7.453-1.883c17.36,9.723,36.847,13.178,55.657,18.686c12.073,3.535,24.057,7.029,35.392,13.271
			c7.409,4.08,12.387,10.114,18.603,15.053c6.419,5.099,6.014,13.199,7.299,20.437c0.173,0.974,0.137,1.984,0.197,2.978
			c0.938,5.094,0.188,10.234,0.429,15.345c0.241,2.259-0.526,4.598,0.515,6.799c0,4.333,0,8.667,0,13
			c-3.02,7.23-9.186,11.305-15.635,14.731c-13.979,7.429-28.693,13.091-43.784,17.947c-10.626,3.419-21.544,5.574-32.276,8.478
			c-18.476,4.998-37.513,7.242-56.546,9.35c-12.591,1.394-25.203,1.485-37.816,1.954c-1.64,0.061-3.327,0.312-4.943-0.291
			c-7.93-0.06-15.864,0.007-23.789-0.223c-5.427-0.157-10.841-0.727-16.261-1.111c-2.681-0.952-5.562,0.281-8.236-0.757
			c-15.234-1.891-30.523-3.421-45.687-5.768c-16.958-2.624-33.884-5.43-49.933-12.191c-6.938-2.923-14.71-3.806-21.873-6.279
			c-6.051-2.089-11.848-4.979-17.613-7.809c-5.325-2.613-10.496-5.55-15.668-8.462c-6.873-3.87-9.187-10.934-9.479-17.72
			c-0.511-11.886-0.141-23.932,1.272-35.742c1.418-11.844,9.162-20.071,19.073-26.315c13.503-8.507,28.802-12.154,43.872-16.448
			c18.588-5.296,37.113-10.797,54.522-19.376c3.036-1.496,4.187-0.508,5.768,2.094c14.221,23.389,28.621,46.669,42.935,70.002
			c6.105,9.952,12.128,19.954,18.188,29.933C236.878,426.101,236.843,427.529,237.485,428.535z"/>
		<path fill-rule="evenodd" fill="#FEFEFE" d="M258.499,481.669c25.651-1.207,51.251-2.979,76.472-8.125
			c10.301-2.102,20.536-4.555,30.734-7.113c11.496-2.885,23.165-5.368,34.314-9.289c16.007-5.63,32.316-11.049,45.054-23.184
			c1.516-1.444,2.953-2.97,4.427-4.458c0,8.333,0,16.667,0,25c-4.272,6.634-10.521,11.431-15.936,16.991
			c-3.79,3.894-7.175,8.296-12.064,11.009c-54.333,0-108.666,0-163,0C258.5,482.223,258.5,481.945,258.499,481.669z"/>
		<path fill-rule="evenodd" fill="#FEFEFE" d="M421.5,482.5c9.333-9.333,18.667-18.667,28-28c0,6.667,0,13.333,0,20
			c-1.891,3.442-4.558,6.109-8,8C434.833,482.5,428.167,482.5,421.5,482.5z"/>
		<path fill-rule="evenodd" fill="#FEFEFE" d="M441.5,482.5c2.667-2.667,5.333-5.333,8-8C449.5,482.5,449.5,482.5,441.5,482.5z"/>
		<path fill-rule="evenodd" fill="#2CA5D8" d="M448.504,410.503c0.018-5.382,0.035-10.764,0.053-16.146
			c0.302,0.128,0.616,0.176,0.943,0.143c0,5.333,0,10.667,0,16C449.169,410.963,448.837,410.942,448.504,410.503z"/>
		<path fill-rule="evenodd" fill="#2C9FCF" d="M448.504,410.503c0.332-0.002,0.664-0.003,0.996-0.003c0,2,0,4,0,6
			C449.168,414.501,448.836,412.502,448.504,410.503z"/>
		<path fill-rule="evenodd" fill="#28AAE1" d="M256.25,33.497c17.996-0.109,35.14,3.822,51.615,10.907
			c15.695,6.75,26.473,18.423,34.41,33.345c9.859,18.531,13.828,38.423,15.113,59.074c0.277,4.465,0.559,8.931,0.966,13.385
			c0.102,1.101,0.389,2.495,1.125,3.18c8.177,7.596,8.725,17.812,9.813,27.872c1.027,9.482-0.81,18.53-4.949,26.949
			c-1.659,3.376-4.367,7.458-7.548,8.62c-7.559,2.762-9.19,9.475-12.347,15.221c-6.746,12.283-14.131,23.955-23.121,34.909
			c-8.465,10.314-18.621,17.967-29.633,24.54c-13.793,8.233-28.508,14.95-45.24,13.765c-11.323-0.802-22.13-3.861-31.909-9.9
			c-7.034-4.344-14.884-7.827-20.842-13.345c-9.282-8.598-17.991-18.052-25.587-28.161c-6.785-9.03-11.617-19.512-17.58-29.187
			c-1.419-2.302-3.691-4.265-5.954-5.828c-11.201-7.735-14.615-19.189-14.946-31.819c-0.153-5.861,0.484-11.938,1.995-17.588
			c1.321-4.942,4.528-9.354,6.6-14.13c1.657-3.824,3.883-7.792,4.088-11.786c0.948-18.414,2.852-36.565,9.137-54.084
			c8.586-23.935,28.964-38.655,53.906-38.624c7.033,0.009,10.664-3.918,14.794-7.743c8.31-7.695,18.792-8.268,29.099-9.523
			C251.554,33.265,253.916,33.504,256.25,33.497z"/>
		<path fill-rule="evenodd" fill="#28AAE1" d="M209.334,351.515c0-4.991,0-9.982,0-14.974c-0.859-1.007-0.441-2.017-0.004-3.026
			c0.583-3.878-1.206-8.506,3.844-10.918c5.236-2.501,8.166,1.479,11.692,3.854c0.686,0.462,1.284,1.057,1.918,1.594
			c5.97,5.05,11.478,9.757,19.56,2.373c3.36-3.07,8.688-0.024,12.371,2.128c4.457,2.605,7.12,0.773,10.301-1.958
			c3.099-2.661,6.355-5.392,10.008-7.097c6.177-2.884,10.436,0.146,10.465,6.889c0.044,9.832,0.051,19.665-0.012,29.497
			c-0.023,3.539-0.604,6.875-4.178,8.852c-3.541,1.959-5.861-0.299-8.443-2.099c-4.449-3.104-8.908-6.213-13.547-9.015
			c-1.07-0.646-3.234-0.623-4.296,0.045c-7.062,4.443-13.36,4.606-19.896-0.343c-2.205-1.67-3.295-1.541-5.333,0.252
			c-4.082,3.591-8.388,7.013-12.984,9.894c-1.926,1.207-4.825,0.86-7.282,1.221c-1.102,0.434-1.438-0.6-2.065-1.078
			c-3.711-3.111-1.324-7.392-2.119-11.062C207.865,354.867,208.623,353.19,209.334,351.515z"/>
		<path fill-rule="evenodd" fill="#FDFDFD" d="M237.485,428.535c-0.632-1.013-1.263-2.025-1.895-3.039
			c1.468-0.997,3.132-1.796,4.373-3.022c9.585-9.472,19.085-19.03,28.623-28.549c1.155-1.152,2.388-2.226,4.265-2.836
			c-0.697,0.884-1.316,1.849-2.105,2.642c-9.981,10.018-20.016,19.982-29.952,30.043
			C239.456,425.128,238.577,426.937,237.485,428.535z"/>
		<path fill-rule="evenodd" fill="#FDFDFD" d="M183.994,278.331c-11.055,11.055-22.11,22.109-33.165,33.164
			c0.348,0.347,0.696,0.692,1.043,1.038c10.968-11.135,21.936-22.27,32.903-33.404C184.515,278.862,184.254,278.597,183.994,278.331
			z"/>
		<path fill-rule="evenodd" fill="#F3F3F3" d="M246.399,437.158c6.282-5.495,12.563-10.991,18.846-16.487
			c-0.154-0.186-0.308-0.37-0.462-0.556c-5.761,6.034-11.521,12.068-17.282,18.103C247.134,437.865,246.767,437.512,246.399,437.158
			z"/>
		<path fill-rule="evenodd" fill="#F2F3F3" d="M209.334,351.515c0,1.676,0.001,3.352,0.002,5.027c-2.295,2.167-4.533,4.4-6.93,6.448
			c-0.543,0.465-1.637,0.284-2.478,0.401c0.022-0.96-0.358-2.302,0.131-2.815C203.042,357.451,206.221,354.514,209.334,351.515z"/>
		<path fill-rule="evenodd" fill="#F3F3F3" d="M209.331,333.515c0.001,1.009,0.003,2.018,0.004,3.026
			c-5.039,4.824-10.078,9.648-15.117,14.472c-0.46-0.451-0.92-0.902-1.38-1.354C198.335,344.277,203.833,338.896,209.331,333.515z"
			/>
		<path fill-rule="evenodd" fill="#F0F2F2" d="M211.455,367.604c0.688,0.359,1.376,0.719,2.064,1.078
			c-1.688,2.121-3.376,4.242-5.065,6.363c-0.391-0.311-0.782-0.621-1.172-0.932C208.673,371.944,210.064,369.774,211.455,367.604z"
			/>
		<path fill-rule="evenodd" fill="#2CA2D5" d="M210.213,479.578c2.745,0.252,5.491,0.505,8.236,0.757
			C215.704,480.083,212.958,479.83,210.213,479.578z"/>
		<path fill-rule="evenodd" fill="#FEFEFE" d="M132.156,359.183c-1.195,11.573-2.375,22.167-3.342,32.78
			c-0.36,3.959,0.146,8.013-0.383,11.937c-1.59,11.802-3.451,23.567-5.317,35.329c-0.344,2.17-1.115,3.553-4.138,2.403
			c-7.279-2.769-14.861-4.741-22.134-7.525c-6.705-2.567-13.122-5.874-19.751-8.652c-2.917-1.223-3.783-3.093-3.644-6.144
			c0.476-10.421,0.579-20.859,1.118-31.275c0.269-5.199,3.566-9.215,7.835-11.331c7.271-3.603,14.941-6.482,22.623-9.15
			C113.6,364.574,122.377,362.17,132.156,359.183z"/>
		<path fill-rule="evenodd" fill="#FEFEFE" d="M367.541,359.729c16.659,4.339,33.028,8.425,47.993,16.735
			c7.956,4.419,9.884,11.228,9.243,19.685c-0.318,4.207,0.563,8.491,0.69,12.747c0.129,4.35,0.225,8.729-0.184,13.047
			c-0.1,1.05-2.099,2.225-3.455,2.805c-12.245,5.238-24.517,10.421-36.847,15.457c-2.373,0.97-5.021,1.525-7.573,1.657
			c-0.908,0.048-2.632-1.644-2.759-2.689c-1.2-9.947-2.178-19.922-3.141-29.896c-1.358-14.071-2.679-28.146-3.94-42.225
			C367.363,364.749,367.541,362.412,367.541,359.729z"/>
		<path fill-rule="evenodd" fill="#FEFEFE" d="M320.486,433.498c-5.978,0.001-11.955-0.045-17.933,0.019
			c-3.542,0.037-5.171-1.61-5.062-5.128c0.092-2.983-0.897-6.62,0.483-8.729c0.965-1.475,5.113-1.055,7.852-1.146
			c12.05-0.401,24.104-0.688,36.156-0.991c0.643-0.016,1.828,0.11,1.856,0.305c0.614,4.135,1.526,8.309,1.335,12.427
			c-0.055,1.16-3.367,2.98-5.27,3.096C333.452,433.736,326.962,433.496,320.486,433.498z"/>
		<path fill-rule="evenodd" fill="#FEFEFE" d="M211.404,99.362c4.151,3.693,8.249,8.449,13.337,11.614
			c8.136,5.061,16.569,10.087,25.539,13.249c10.681,3.767,22.025,5.723,33.154,8.131c7.646,1.655,15.568,2.178,23.096,4.214
			c13.35,3.61,23.617,11.471,30.105,24.025c1.072,2.072,3.803,3.222,5.281,5.166c2.097,2.759,4.324,5.662,5.42,8.871
			c1.084,3.176,0.734,6.82,1.186,10.237c0.791,5.999-1.279,11.199-5.107,15.444c-2.515,2.789-6.408,4.31-9.045,7.02
			c-2.314,2.379-4.225,5.427-5.477,8.518c-5.537,13.67-13.4,25.851-23.13,36.826c-8.81,9.938-18.911,18.348-30.718,24.602
			c-18.286,9.686-36.133,8.886-53.914-1.585c-17.128-10.086-30.463-23.984-41.131-40.462c-4.167-6.436-7.199-13.639-10.419-20.644
			c-2.668-5.804-6.543-10.259-12.41-12.779c-5.06-2.175-6.233-6.816-6.5-11.296c-0.339-5.717-0.039-11.611,1.082-17.21
			c0.504-2.52,3.242-5.601,5.691-6.543c9.695-3.731,19.247-7.79,26.906-14.837c8.392-7.721,14.742-17.182,18.826-27.883
			C206.279,115.909,208.711,107.521,211.404,99.362z"/>
		<path fill-rule="evenodd" fill="#28AAE1" d="M187.537,173.759c0.378-8.189,7.334-14.542,15.579-14.227
			c8.388,0.32,14.86,7.524,14.336,15.958c-0.507,8.167-7.58,14.412-15.818,13.968C193.457,189.017,187.157,182.001,187.537,173.759z
			"/>
		<path fill-rule="evenodd" fill="#28AAE1" d="M284.439,183.485c-3.754-6.328-3.764-12.653,0.017-18.975
			c-0.224-0.905,0.132-1.281,1.047-1.147c4.13-2.591,8.358-4.825,13.498-3.522c6.048,1.534,9.958,5.333,11.169,11.436
			c1.172,5.91-0.863,10.915-5.754,14.411c-5.051,3.61-10.474,3.807-15.928,0.694c-0.994-0.568-1.977-1.162-2.963-1.744
			C284.632,184.754,284.229,184.408,284.439,183.485z"/>
		<path fill-rule="evenodd" fill="#D5EEF8" d="M284.439,183.485c0.361,0.384,0.724,0.769,1.086,1.152
			c-2.809,3.221-3.051-0.517-4.236-1.808C282.34,183.049,283.389,183.267,284.439,183.485z"/>
		<path fill-rule="evenodd" fill="#D5EEF8" d="M285.503,163.363c-0.349,0.383-0.698,0.765-1.047,1.147
			c-1.071,0.229-2.142,0.458-3.212,0.687c-0.072-0.521-0.144-1.042-0.216-1.563C282.52,163.543,284.012,163.453,285.503,163.363z"/>
	</g>
</g>
</svg>
