<?xml version="1.0" encoding="utf-8"?>
<!-- Generator: Adobe Illustrator 16.0.0, SVG Export Plug-In . SVG Version: 6.00 Build 0)  -->
<svg version="1.2" baseProfile="tiny" id="Layer_1__x2B__Layer_2_xA0_Image_1_"
	 xmlns="http://www.w3.org/2000/svg" xmlns:xlink="http://www.w3.org/1999/xlink" x="0px" y="0px" width="800px" height="800px"
	 viewBox="0 0 800 800" xml:space="preserve">
<g>
	<g>
		<path fill="#FEFEFE" d="M1,400.5c0-131.667,0.019-263.333-0.094-395C0.902,1.751,1.751,0.905,5.5,0.906
			c263.667,0.104,527.333,0.104,791,0c3.749-0.001,4.595,0.845,4.594,4.594c-0.104,263.667-0.104,527.333,0,791
			c0.001,3.749-0.845,4.595-4.594,4.594c-263.667-0.104-527.333-0.104-791,0c-3.749,0.001-4.598-0.845-4.594-4.594
			C1.019,664.5,1,532.5,1,400.5z"/>
		<path fill-rule="evenodd" fill="#9B2A5E" d="M206.128,380.523c-1.597-4.92-3.194-9.84-4.791-14.76
			c2.096-1.967,2.794,0.216,3.614,1.351c9.934,13.752,21.853,25.583,35.316,35.8c12.887,9.778,26.684,17.921,41.69,24.328
			c14.231,6.077,28.83,10.198,43.947,12.898c1.646,0.564,3.369,0.565,5.08,0.66c0.754,0.049,1.494,0.179,2.228,0.355
			c1.967,0.661,4.001,0.521,6.025,0.492c1.604-0.003,3.198,0.085,4.773,0.41c2.105,0.73,4.289,0.562,6.459,0.559
			c4.191-0.02,8.381,0.055,12.564-0.061c9.523-1.384,19.178-1.532,28.667-3.485c19.997-4.114,39.093-10.579,56.948-20.541
			c8.805-3.665,16.626-8.89,23.813-15.114c5.098-3.657,9.77-7.82,14.338-12.107c11.93-9.756,21.117-21.875,29.836-34.417
			c1.047-1.505,1.521-4.571,4.657-2.669c-1.104,10.089-5.225,19.22-9.245,28.331c-9.021,20.448-21.128,39.003-36.579,55.094
			c-17.803,18.54-38.556,32.982-62.161,43.601c-21.119,9.5-43.208,14.287-65.976,16.854c-2.82,0.318-5.652,0.332-8.462-0.219
			c-2.842-0.851-5.661-0.652-8.471,0.185c-7.388,0.827-14.613-0.301-21.811-1.77c-1.394-0.74-2.836-1.368-4.386-1.719
			c-1.916-0.586-3.361-2.078-5.242-2.738c-5.44-3.611-10.88-7.224-16.321-10.835c-1.122-1.016-2.089-2.231-3.591-2.75
			c-0.064-0.285-0.242-0.412-0.532-0.381c-1.402-0.614-1.943-2.366-3.561-2.695l-0.135-0.107c-1.618-1.214-2.748-3.048-4.77-3.747
			c-0.976-0.767-1.951-1.534-2.927-2.302c-0.871-1.203-1.851-2.295-3.137-3.074c-3.762-3.665-7.523-7.33-11.285-10.995
			c-0.343-1.517-1.66-2.158-2.72-3.031c-0.286-0.3-0.571-0.599-0.857-0.898c-1.193-1.509-2.299-3.109-4.145-3.928
			c-1.77-2.383-3.539-4.767-5.308-7.149c-0.649-2.01-2.506-3.067-3.674-4.667c-3.746-5.438-7.491-10.877-11.237-16.314
			c-0.819-1.599-1.41-3.335-2.769-4.609c-0.416-0.798-0.833-1.597-1.249-2.395c-1.123-2.416-2.371-4.767-3.641-7.107l0.06,0.098
			c-1.068-2.008-1.839-4.165-3.062-6.095l0.06,0.096c-1.347-2.49-2.148-5.28-4.091-7.442c-0.053-0.51-0.105-1.021-0.158-1.53
			c-0.702-1.606-0.951-3.395-1.961-4.877l-0.034-0.081C207.534,383.438,206.604,382.071,206.128,380.523z"/>
		<path fill-rule="evenodd" fill="#86B94F" d="M555.983,146.071c3.314,3.315,6.629,6.631,9.944,9.946
			c2.001,2.983,5.143,4.964,7.059,8.022c0.646,0.66,1.291,1.32,1.938,1.98c1.039,1.702,2.969,2.5,4.148,4.061
			c0.291,0.322,0.544,0.673,0.783,1.034c0.839,1.511,2.064,2.711,3.222,3.968c0.29,0.324,0.545,0.674,0.782,1.036
			c0.754,1.332,1.805,2.43,2.832,3.548c1.018,1.688,2.838,3.006,2.475,5.332c1.334,1.99,2.668,3.98,4.002,5.971
			c0.564,0.354,1.167,0.661,1.566,1.228c0.919,1.514,1.773,3.069,2.815,4.51c0.474,0.768,0.89,1.567,1.305,2.368
			c2.66,6.523,5.562,12.928,9.261,18.942c0.113,0.431,0.23,0.862,0.354,1.291c1.032,2.16,1.39,4.576,2.526,6.699l-0.004-0.006
			c0.837,1.612,1.129,3.439,1.992,5.04c0,0.331,0.061,0.65,0.182,0.957c2.843,3.332,4.643,6.976,3.45,11.515
			c-2.624,1.759-3.425-0.821-4.522-2.1c-5.715-6.658-11.138-13.59-17.554-19.599c-5.555-5.202-11.274-10.24-17.547-14.602
			c-27.471-20.741-58.279-33.114-92.494-36.962c-15.429-1.735-30.856-1.426-46.278,0.104c-24.215,3.101-46.975,10.69-68.459,22.199
			c-17.974,8.166-33.053,20.265-46.327,34.66c-7.764,8.418-15.55,16.869-21.46,26.81c-0.634,1.067-1.369,2.968-3.399,1.67
			c-1.072-3.114,0.295-5.949,1.262-8.706c8.958-25.545,21.623-48.844,39.803-69.237c25.486-28.59,56.833-47.352,93.326-57.874
			c12.973-3.741,26.326-5.371,39.841-6.437c10.063-0.793,19.905,0.192,29.843,0.624c1.663,0.562,3.397,0.653,5.135,0.725
			c0.736,0.048,1.459,0.178,2.172,0.358c1.59,0.594,3.319,0.508,4.936,0.984c1.54,0.731,2.709,1.984,4.091,2.939
			c3.66,2.351,7.321,4.7,10.981,7.05c2.338-0.135,3.762,1.258,4.986,2.983c0.336,0.303,0.672,0.605,1.009,0.909
			c1.439,0.862,2.583,2.13,4.048,2.959l0.017,0.014c1.229,0.788,2.178,1.975,3.57,2.534c0.411,0.12,0.807,0.274,1.19,0.463
			c1.378,1.01,2.536,2.302,4.055,3.135c0.38,0.23,0.729,0.499,1.069,0.782C552.258,141.641,553.424,144.54,555.983,146.071z"/>
		<path fill-rule="evenodd" fill="#C7292D" d="M450.047,418.946c-12.263,8.16-25.987,13.227-40.024,16.781
			c-13.639,3.454-27.776,4.931-41.691,7.293c-1.461,0.248-2.899,0.622-4.348,0.938c-4.585-1.032-9.232-0.208-13.844-0.474
			c-2.017-0.185-4.087,0.419-6.06-0.412c-1.688-0.028-3.375-0.058-5.062-0.086c-1.839-1.245-4.101,0.2-5.956-0.937
			c-0.688-0.022-1.377-0.046-2.066-0.068c-1.49-1.183-3.464,0.16-4.969-0.947c-12.913-3.305-26.15-5.706-38.641-10.188
			c-10.934-3.923-21.479-9.453-31.402-15.562c-20.692-12.739-38.875-28.463-52.748-48.726c-0.325-0.476-1.253-0.537-1.899-0.794
			c-0.093-0.275-0.218-0.533-0.375-0.776c-0.71-2.629-0.772-5.421-1.995-7.92l-0.018-0.055c-1.06-1.391,0.27-3.275-0.958-4.632
			c-0.386-1.471-0.772-2.94-1.158-4.41c-0.925-1.873,0.439-4.083-0.869-5.899l-0.019-0.058c-1.152-1.846,0.375-4.134-0.979-5.946
			l-0.018-0.055c-1.235-2.536,0.444-5.433-0.982-7.945l-0.018-0.055c-1.151-3.071,0.264-6.374-0.854-9.448
			c-0.087-1.531-0.174-3.062-0.262-4.594c-0.475-6.649-0.601-13.299,0-19.948c0.046-1.037,0.093-2.073,0.139-3.11
			c1.363-3.202-0.136-6.653,0.861-9.887c0.046-0.37,0.093-0.741,0.14-1.111c1.382-2.161-0.223-4.743,0.976-6.931l0.017-0.054
			c1.356-1.812-0.177-4.102,0.983-5.946l0.017-0.054c1.289-1.448-0.108-3.429,0.974-4.918c1.017-4.132,2.034-8.265,3.051-12.396
			c0.903-1.064,0.451-2.562,1.172-3.684c1.276-4.105,2.552-8.211,3.828-12.316c1.501-2.331,1.813-5.122,2.931-7.602
			c0.255-0.097,0.326-0.269,0.213-0.517c0.738-2.255,2.259-4.176,2.78-6.523l0.034-0.083c1.534-3.659,3.799-6.991,4.857-10.862
			c1.383-2.019,2.767-4.036,4.15-6.054c2.598,4.31,0.522,8.854,0.096,13.07c-2.327,23.038,0.506,45.501,6.811,67.567
			c12.341,43.192,37.254,77.524,73.761,103.598c15.988,11.418,33.385,19.889,52.076,25.797c1.889,0.715,3.774,1.44,5.78,1.786
			c1.304,0.262,2.536,0.77,3.845,1.016c15.122,4.513,30.717,5.709,46.349,6.643c1.85,0.11,3.638-0.371,5.446-0.66
			c2.938-0.37,5.886-0.294,8.833-0.236c6.855-0.764,13.72-1.43,20.543-2.462C445.738,417.755,448.067,417.11,450.047,418.946z"/>
		<path fill-rule="evenodd" fill="#F4EA3F" d="M502.907,115.028c-9.444-0.042-18.893-0.294-28.331-0.084
			c-23.893,0.531-46.517,6.374-68.405,15.916c-22.766,9.925-42.595,23.889-59.856,41.552c-22.399,22.918-37.812,49.98-46.868,80.688
			c-0.279,0.947-0.365,1.953-0.541,2.931c1.299,2.643,0.243,5.237-0.297,7.778c-3.01,14.159-5.042,28.461-5.042,42.933
			c0,11.784,1.397,23.503,3.614,35.101c0.401,2.102,1.097,4.201,0.487,6.384c-2.997,2.374-3.327-0.988-3.996-2.216
			c-3.188-5.847-6.148-11.817-8.883-17.899c-13.013-28.938-17.126-59.432-14.938-90.765c1.506-21.57,7.236-42.277,16.013-62.091
			c10.871-24.54,26.002-46.059,45.778-64.227c4.982-4.576,9.624-9.733,16.346-11.988c0.401-0.646,0.804-1.291,1.205-1.937
			c4.151-2.429,8.797-3.332,13.4-4.368c1.753-0.09,3.529,0.019,5.231-0.575c1.711-0.298,3.401-0.991,5.173-0.326
			c0.348-0.001,0.695-0.001,1.044-0.002c1.798-0.392,3.544-0.976,5.32-1.456c0.451-0.151,0.91-0.26,1.376-0.35
			c1.9-0.273,3.841-0.289,5.68-0.951c1.013-0.249,2.036-0.381,3.079-0.399c4.552,1.337,9.132,0.236,13.698,0.159
			c0.27,0.053,0.538,0.108,0.807,0.164c0.333-0.056,0.666-0.11,0.999-0.166c3.366-1.879,6.701-1.953,9.999,0.171l-0.004-0.001
			c5.067-0.157,10.151,0.477,15.204-0.329c0.834,0.009,1.646,0.156,2.438,0.407c1.782,1.155,3.637,1.906,5.775,0.97
			c0.496-0.019,0.99,0.029,1.478,0.123c1.605,0.523,3.289,0.59,4.955,0.769c0.477,0.057,0.942,0.162,1.405,0.284
			c1.617,0.398,3.186,0.947,4.719,1.6c0.334,0.098,0.667,0.196,1,0.294c3.296-0.685,6.34-0.232,8.99,1.994
			c3.014,0.906,6.028,1.812,9.043,2.72c1.841-0.708,3.601-0.086,5.296,0.474c9.377,3.091,18.739,6.232,27.59,10.684
			c2.763,1.598,5.642,2.959,8.591,4.186c1.035,0.764,2.22,1.461,1.465,3.075c-1.021,0.285-2.034,0.417-3.005-0.173
			c-0.641-0.052-1.28-0.103-1.921-0.154C506.447,114.864,504.474,116.105,502.907,115.028z"/>
		<path fill-rule="evenodd" fill="#5C358A" d="M338.976,496.923c24.184-0.912,47.786-4.925,69.729-15.44
			c13.403-6.423,26.709-13.391,39.017-21.663c12.688-8.529,23.677-19.245,33.717-31.081c11.491-13.548,20.916-28.218,28.16-44.243
			c4.483-9.918,7.528-20.486,11.219-30.764c-1.938-2.683-0.698-5.484-0.12-8.152c2.997-13.827,4.762-27.802,4.759-41.942
			c-0.002-10.293-1.268-20.511-2.904-30.672c-0.394-2.444-1.212-4.855-0.537-7.373c2.062-3.61,3.213-0.488,4.15,0.768
			c3.612,4.836,5.565,10.572,7.929,16.027c9.677,22.334,14.463,45.793,15.319,70.088c-0.033,3.785-0.069,7.567,0.045,11.349
			c0.114,5.499-1.133,10.886-1.345,16.355c-0.498,1.794-0.851,3.616-0.873,5.488c-3.368,20.833-9.407,40.835-19.078,59.635
			c-7.481,14.546-16.739,27.868-27.357,40.371c-8.686,10.228-19.098,18.408-29.124,27.091c-1.236,0.466-2.473,0.932-3.709,1.398
			c-2.342,0.521-4.7,0.979-6.949,1.85l-0.017,0.007c-1.494,1.143-3.5-0.259-4.972,0.999l-0.025,0.011
			c-1.505,1.12-3.504-0.257-4.985,0.983l-0.017,0.008c-1.496,1.14-3.498-0.255-4.973,0.992c-0.354,0.054-0.71,0.107-1.065,0.161
			c-1.552,0.843-3.446-0.347-4.94,0.836c-0.354,0.054-0.706,0.107-1.059,0.161c-1.895,0.9-4.099-0.401-5.945,0.838
			c-0.685,0.053-1.369,0.106-2.055,0.159c-4.938,1.008-10.019-0.505-14.938,0.844c-4.352-0.001-8.704-0.002-13.056-0.003
			c-4.922-1.342-10.004,0.164-14.945-0.839c-0.688-0.053-1.376-0.105-2.063-0.158c-2.179-1.36-4.779,0.263-6.974-0.985l-0.021-0.01
			c-1.827-1.326-4.132,0.219-5.977-0.997l-0.017-0.007c-1.833-1.314-4.134,0.214-5.985-0.987l-0.021-0.01
			c-1.49-1.194-3.393,0.008-4.941-0.848c-3.785-1.054-7.57-2.107-11.355-3.161c-5.887-1.919-11.741-3.937-17.642-5.815
			c-1.122-0.395-2.244-0.789-3.366-1.184c-3.109-1.535-6.408-2.594-9.637-3.827c-0.787-0.392-1.574-0.782-2.362-1.173
			c-3.887-1.994-7.896-3.75-11.694-5.919l0.129-0.272c-0.049-1.637,0.825-1.37,1.809-0.878c7.704,0.663,15.408,1.327,23.112,1.991
			C333.674,496.261,336.325,496.271,338.976,496.923z"/>
		<path fill-rule="evenodd" fill="#E6AC46" d="M347.986,99.041c-23.849,17.937-42.765,40.158-56.144,66.761
			c-5.317,10.573-8.909,22.04-12.966,33.216c-8.135,22.41-8.853,45.783-7.681,69.181c0.5,9.976,2.685,19.946,4.903,29.737
			c4.095,18.073,11.503,34.904,20.647,50.983c1.908,0.784,2.293,2.742,3.237,4.253c12.712,20.354,28.049,38.309,47.688,52.356
			c1.496,1.069,3.092,1.943,4.67,2.87c1.332,1.089,3.162,1.804,3.037,3.997c-0.603,1.174-1.481,1.289-2.552,0.664
			c-17.769-4.562-33.853-12.854-48.953-22.971c-28.199-18.892-50.11-43.466-65.453-73.854c-9.526-18.867-15.285-38.818-18.482-59.65
			c-2.799-18.237-2.04-36.407,0.019-54.608c0.032-0.32,0.059-0.641,0.081-0.961c0.371-1.475,1.09-2.78,1.943-4.021l0.009-0.013
			c1.208-1.488,1.915-3.259,2.785-4.937c2.741-4.106,5.483-8.213,8.224-12.319c1.045-1.197,2.189-2.316,2.947-3.739l0.029-0.036
			c0.893-1.332,2.202-2.365,2.802-3.907c0.407-0.439,0.815-0.879,1.223-1.318c1.202-1.6,2.996-2.725,3.76-4.678
			c0.415-0.677,0.829-1.354,1.244-2.03c2.589-1.995,5.123-4.043,6.751-6.969c4.098-4.096,8.195-8.191,12.293-12.288
			c2.362-1.025,3.686-3.291,5.677-4.76c0.441-0.412,0.881-0.823,1.322-1.235c1.509-0.546,2.488-1.797,3.678-2.766
			c7.773-5.404,15.545-10.809,23.318-16.214c1.662-0.894,3.457-1.555,4.914-2.807l0.032-0.025c1.6-1.113,3.5-1.716,5.032-2.946
			c2.676-1.397,5.352-2.795,8.027-4.192c2.468-0.562,4.607-1.938,6.947-2.817l0.005-0.003c1.614-0.812,3.435-1.104,5.021-1.987
			C334.675,103.019,341.33,101.029,347.986,99.041z"/>
		<path fill-rule="evenodd" fill="#FE6C00" d="M321.745,653.012c-18.521,4.584-23.842-5.827-24.935-16.849
			c-5.048,3.52-10.343,6.435-14.674,10.401c-7.374,6.755-23.668,9.745-32.856,4.052c-2.55-1.58-4.662-3.868-7.032-5.881
			c-13.308,13.585-29.541,11.397-33.718-2.707c-5.316,7.322-12.266,12.165-21.265,11.773c-9.499-0.413-14.802-6.86-17.322-15.274
			c-9.298,8.964-19.146,16.103-32.471,16.457c-6.383,0.17-12.72,0.351-18.493-3.396c-9.503-6.165-12.253-16.484-10.802-25.638
			c1.538-9.704,5.644-18.46,13.399-24.899c3.316-2.753,7.229-4.789,10.854-7.14c-1.886-3.067-4.981-6.488-6.248-10.488
			c-2.906-9.178,0.749-17.15,6.292-24.396c5.526-7.223,13.041-10.761,21.902-12.034c9.44-1.356,19.747,5.104,22.321,14.261
			c1.821,6.476-2.567,15.966-8.534,17.651c-1.889,0.533-4.339,0.101-6.222-0.66c-1.748-0.705-2.255-2.031-0.674-4.272
			c1.865-2.645,2.958-6.043,3.616-9.271c0.66-3.239,0.549-6.659-3.678-8.074c-3.953-1.324-7.433-0.577-10.409,2.121
			c-11.855,10.747-8.681,28.877,6.899,35.346c-8.434,2.672-14.516,7.639-18.77,14.572c-4.708,7.672-7.844,15.85-4.876,25.036
			c1.574,4.875,4.886,7.203,10.305,7.411c8.46,0.325,15.808-2.182,22.17-7.438c1.697-1.402,3.205-4.025,3.332-6.175
			c0.743-12.584,4.79-24.049,12.405-33.844c7.044-9.059,16.893-13.297,28.553-11.48c2.346,0.365,4.395,2.635,6.915,4.239
			c-0.185-4.029,1.738-5.174,5.93-4.565c4.401,0.639,8.976,0.022,13.47,0.144c0.63,0.018,1.848,1.239,1.754,1.688
			c-2.37,11.438-4.901,22.843-7.353,34.265c-1.19,5.545-2.65,11.075-3.208,16.689c-0.195,1.958,0.036,5.406,4.117,5.441
			c4.052,0.033,8-0.568,8.38-5.072c0.469-5.545,2.489-9.322,6.98-12.705c2.483-1.87,3.723-5.683,4.978-8.836
			c3.899-9.797,7.416-19.746,11.399-29.507c0.651-1.595,2.751-3.27,4.455-3.637c5.087-1.096,10.304-1.616,15.49-2.188
			c0.566-0.062,1.604,0.887,1.819,1.559c0.538,1.683,0.934,3.465,1.024,5.226c0.413,8.092,0.644,16.193,1.051,24.285
			c0.405,8.053,0.942,16.098,1.42,24.118c8.556-2.073,10.143-9.191,11.544-16.529c1.95-10.214,4.083-20.393,6.03-30.607
			c0.888-4.655,4.659-4.407,7.888-4.65c2.922-0.221,5.948,0.703,8.841,0.368c4.312-0.499,4.829,1.758,4.184,4.929
			c-1.911,9.389-3.943,18.753-5.983,28.115c-1.243,5.706-2.913,11.344-3.719,17.105c-0.304,2.172,0.614,5.794,2.16,6.675
			c3.126,1.782,6.989,0.569,8.505-2.843c2.464-5.55,4.605-11.343,6.008-17.241c2.704-11.372,4.747-22.901,7.239-34.327
			c0.2-0.918,1.718-2.165,2.665-2.203c5.357-0.213,10.737-0.26,16.082,0.072c0.766,0.048,2.181,2.625,1.948,3.756
			c-2.709,13.194-5.765,26.318-8.551,39.498c-2.863,13.542-5.278,27.184-8.349,40.677c-3.479,15.286-15.336,24.534-29.683,20.968
			c-6.627-1.647-11.287-5.571-12.146-12.489c-0.973-7.844,2.284-13.943,9.417-17.68C316.204,655.506,319,654.306,321.745,653.012z"
			/>
		<path fill-rule="evenodd" fill="#4171B5" d="M546.977,380.963c0.367-5.674,0.733-11.347,1.1-17.02
			c0.725-3.963,0.719-7.926,0.003-11.889c-1.313-25.949-6.301-51.034-17.841-74.518c-2.152-4.38-4.906-8.464-7.383-12.685
			c-0.781,0.199-1.294-0.179-1.524-0.858c-4.052-11.94-12.477-21.004-20.139-30.556c-9.749-12.152-21.447-22.202-34.049-31.261
			c-1.189-0.855-2.597-1.61-2.57-3.414c1.961-3.116,4.495-1.223,6.597-0.494c18.267,6.335,35.354,14.962,50.833,26.638
			c0.926,0.698,1.81,1.453,2.794,2.073c24.582,17.583,42.91,40.554,56.535,67.227c10.118,19.808,16.467,40.963,18.955,63.161
			c0.277,2.479,1.02,4.886,1.054,7.399c0.076,2.812-0.049,5.623,0.148,8.432c0.013,3.826,0.013,7.651,0.007,11.477
			c-0.164,1.749-0.095,3.505-0.108,5.258c-0.024,2.296,0.015,4.595-0.08,6.89c-0.588,3.534-1.123,7.077-1.363,10.657
			c-0.414,2.441-1.635,4.51-3.018,6.503c-0.978,1.668-1.954,3.337-2.931,5.005c-1.302,1.494-1.729,3.527-3.079,4.99
			c-0.642,1-1.283,2-1.925,3c-0.863,1.424-2.17,2.529-2.906,4.045l-0.048,0.058c-1.008,1.295-2.195,2.456-2.945,3.944l-0.054,0.06
			c-1.022,1.286-2.182,2.471-2.968,3.936l-0.039,0.046c-1.266,1.722-2.886,3.149-4.095,4.918c-0.313,0.334-0.628,0.668-0.941,1.003
			c-1.939,3.025-5.08,4.993-7.038,8.003c-1.32,1.333-2.641,2.667-3.961,4c-1.968,2.703-4.304,5.038-7.006,7.007
			c-1.001,0.985-2.002,1.97-3.003,2.955c-2.197,1.432-3.787,3.568-5.914,5.083l-0.052,0.047c-1.937,0.961-3.2,2.77-4.966,3.945
			l-0.039,0.032c-1.489,0.779-2.619,2.051-4.03,2.937c-1.012,0.761-2.024,1.522-3.036,2.284c-1.587,0.519-2.568,1.923-3.971,2.713
			c-2.005,1.404-4.01,2.809-6.015,4.214c-1.655,0.905-3.465,1.544-4.907,2.821l-0.041,0.032c-1.609,1.092-3.504,1.693-5.023,2.938
			c-5.011,2.729-10.021,5.457-15.031,8.186c-1.695,0.499-3.389,1-4.969,1.814c-1.679,0.735-3.357,1.47-5.036,2.205
			c-1.704,0.462-3.385,0.992-4.966,1.794c-4.769,1.589-9.538,3.178-14.31,4.767c2.027-2.326,3.744-5.057,6.139-6.911
			c16.728-12.96,29.97-28.983,41.055-46.812c13.348-21.469,22.424-44.629,26.226-69.733c0.172-1.135,0.618-2.228,0.937-3.34
			C547.185,384.456,545.863,382.48,546.977,380.963z"/>
		<path fill-rule="evenodd" fill="#FE6C00" d="M641.048,601.108c1.315-5.284,2.443-10.627,4.075-15.812
			c0.426-1.353,2.348-3.019,3.714-3.146c4.323-0.405,8.716,0,13.069-0.198c3.451-0.157,5.191,0.412,3.194,4.27
			c-0.449,0.868-0.065,2.166-0.065,2.575c4.556-1.944,9.065-3.961,13.646-5.799c4.067-1.632,7.506,0.251,9.779,3.195
			c2.521,3.264,3.523,7.071,1.412,11.46c-2.014,4.185-5.536,5.683-9.352,5.93c-3.672,0.238-5.974-2.671-6.358-6.248
			c-0.309-2.869-1.438-2.808-3.778-2.424c-4.925,0.808-8.108,4.232-9.374,10.435c-2.952,14.475-6.102,28.91-8.925,43.409
			c-0.621,3.19-1.729,4.538-5.087,4.309c-3.979-0.271-8.01-0.297-11.985-0.001c-4.355,0.324-4.634-1.623-3.602-5.041
			c0.824-2.729,1.279-5.568,1.443-8.783c-8.767,9.896-19.619,15.884-32.453,14.201c-16.917-2.218-14.305-5.076-18.768-12.062
			c-11.207,15.124-27.692,15.565-35.938,0.941c-4.846,6.592-11.196,10.911-19.407,11.598c-9.118,0.762-18.747-7.985-19.249-17.34
			c-0.882-16.449,3.207-31.477,13.942-44.245c7.476-8.891,18.708-12.831,28.925-9.332c1.708,0.585,3.184,1.849,5.046,2.967
			c1.627-7.909,3.721-16.259,4.951-24.733c0.785-5.408,5.167-3.723,7.964-5.084c1.086-0.529,2.632-0.044,3.955-0.167
			c10.439-0.975,10.412-0.991,8.178,9.191c-4.661,21.237-9.307,42.479-13.925,63.725c-1.365,6.281,0.546,10.729,4.603,11.003
			c3.525,0.238,9.005-4.241,9.282-7.891c0.709-9.303,2.218-18.44,6.115-26.966c5.884-12.87,14.787-22.743,29.703-23.836
			c10.532-0.772,20.379,1.98,18.083,19.769c0.616,2.517-0.623,4.564-1.798,6.555c-5.545,9.389-13.62,15.483-24.368,17.401
			c-4.344,0.775-4.957,3.345-4.812,6.688c0.157,3.63,0.953,6.962,5.369,7.873c11.726,2.42,25.28-6.992,27.708-18.746
			C637.326,614.145,637.986,607.295,641.048,601.108z"/>
		<path fill-rule="evenodd" fill="#64A8DE" d="M599.034,408.075c0.354-3.719,0.709-7.438,1.063-11.156
			c0.889-2.181,0.198-4.461,0.418-6.684c-0.164-1.716,0.374-3.483-0.375-5.157c-0.008-4.054-0.016-8.107-0.023-12.161
			c0.615-2.95,0.674-5.898-0.026-8.844c-2.351-19.484-6.569-38.521-14.151-56.678c-8.252-19.763-19.146-38.015-33.861-53.599
			c-8.727-9.241-18.675-17.33-28.073-25.938c-1.085-3.895,2.428-5.347,4.343-4.91c4.572,1.042,7.921-1.494,11.823-2.671
			c-0.532-1.359-2.666-2.503-1.195-4.517c1.304-1.786,2.749,0.13,4.081-0.138c3.047-0.61,5.861,0.378,8.654,1.38
			c1.026-2.08,0.22-3.847,0.055-5.61c-0.076-0.812-0.453-1.73,0.406-2.281c0.974-0.624,2.282-0.281,2.697,0.465
			c1.492,2.688,2.556,1.085,3.41-0.287c0.859-1.38,1.233-3.729,3.129-3.362c2.908,0.562,5.993,0.039,8.744,1.401
			c0.618,0.307,1.113,0.891,0.678,1.585c-0.852,1.354-2.336,0.871-3.654,1.035c0.167,2.244,1.619,2.729,3.388,2.301
			c1.067-0.26,2.914,0.285,2.482-2.294c-0.246-1.471,0.949-2.994,2.802-0.992c0.706,0.764,1.79,0.602,2.929,0.595
			c-1.282-0.188-2.905,0.322-3.122-1.295c-0.244-1.826,1.37-1.399,2.455-1.478c12.334,8.24,22.368,18.912,31.871,30.146
			c2.003,2.368,4.033,4.712,6.052,7.066c1.315-0.298,1.679,0.72,2.175,1.562c0.793,1.807,1.007,3.79,1.726,5.623
			c0.849,2.865,1.932,5.699,1.231,8.78c0.335,1.355,0.67,2.711,1.005,4.066c0.608,1.422,1.043,2.898,1.419,4.396
			c0.147,0.427,0.255,0.861,0.344,1.303c0.271,1.785,0.241,3.618,0.878,5.348c0.14,0.458,0.228,0.922,0.296,1.394
			c0.192,1.934,0.129,3.897,0.812,5.764c0.197,0.762,0.309,1.533,0.345,2.319c-0.203,3.163-1.631,6.284-0.292,9.494l-0.021-0.02
			c1.368,1.484,1.546,3.308,1.49,5.199c-0.104,5.484-0.03,10.972-0.028,16.46c0.063,1.617-0.343,3.074-1.463,4.285l0.021-0.019
			c-1.492,2.938,0.366,5.767,0.294,8.659c-0.024,0.804-0.152,1.595-0.335,2.376c-0.589,1.991-0.793,4.1-1.763,5.98
			c-0.112,0.312-0.176,0.632-0.191,0.963c-1.099,1.538,0.022,3.435-0.81,5.017c-0.096,0.34-0.192,0.681-0.288,1.021
			c0.65,2.949,0.301,5.686-1.714,8.068c-0.666,2.655-1.333,5.31-2,7.965c0.282,3.428-0.396,6.534-3.002,8.999
			c-0.729,2.644-1.457,5.288-2.186,7.933c-0.882,1.604-1.057,3.5-2.08,5.047c-0.244,0.34-0.487,0.68-0.731,1.02
			c0.917,1.422,0.191,2.699-0.34,3.995c-0.87,1.581-1.548,3.246-2.102,4.965c-0.327,0.848-0.712,1.67-1.108,2.487
			c-1.095,2.259-2.286,4.464-3.729,6.523c-0.97,1.986-1.939,3.974-2.909,5.961C600.472,407.556,600.188,408.555,599.034,408.075z"/>
		<path fill-rule="evenodd" fill="#FE6C00" d="M423.002,560.393c-13.281,14.345-19.079,31.489-21.867,49.751
			c-1.19,7.8-1.598,15.906-0.943,23.756c0.868,10.419,9.092,9.474,14.679,4.602c8.234-7.182,12.606-17.01,15.847-27.12
			c3.964-12.367,6.274-25.148,5.185-38.229c-0.33-3.957-1.563-7.908-2.861-11.698c-2.361-6.892-9.021-7.269-14.35-7.166
			c-12.341,0.237-24.006,3.453-32.202,13.773c-6.019,7.578-10.476,15.712-7.629,26.043c0.554,2.009,1.168,4.139-3.319,3.374
			c-11.886-2.025-12.96-12.988-8.102-22.114c6.251-11.741,16.588-19.347,29.163-23.215c8.003-2.463,16.397-4.382,24.723-4.927
			c19.886-1.302,33.38,12.467,33.757,32.564c0.377,20.074-4.294,38.57-16.108,54.863c-7.314,10.087-16.743,17.527-29.879,18.288
			c-4.966,0.287-10.146,0.574-14.931-0.485c-8.748-1.938-15.803-11.889-16.153-21.471c-0.551-15.09,2.275-29.557,8.118-43.465
			c2.986-7.108,6.655-13.622,12.025-19.397C405.102,560.646,413.192,558.664,423.002,560.393z"/>
		<path fill-rule="evenodd" fill="#FE6C00" d="M484.995,588.582c5.467-2.046,10.563-4.479,15.933-5.796
			c4.285-1.051,6.994,1.913,8.955,5.714c2.337,4.528,0.985,8.464-1.859,11.771c-2.314,2.689-5.875,4.74-9.396,2.569
			c-2.054-1.266-3.016-4.22-4.678-6.243c-0.649-0.791-1.927-1.656-2.82-1.562c-5.787,0.606-8.805,3.734-10.089,10.095
			c-3.022,14.967-5.979,29.946-9.152,44.881c-0.245,1.156-1.924,2.787-3.015,2.852c-5.148,0.302-10.331,0.273-15.481-0.008
			c-0.827-0.045-2.382-2.138-2.205-2.995c4.494-21.775,9.195-43.509,13.794-65.263c0.47-2.222,1.295-2.903,3.745-2.71
			c4.637,0.365,9.395,0.615,13.967-0.036c4.227-0.603,3.562,1.367,3.002,3.843C485.416,586.928,485.1,588.154,484.995,588.582z"/>
		<path fill-rule="evenodd" fill="#FEFEFE" d="M641.048,601.108c-1.689,8.562-2.712,17.326-5.248,25.629
			c-2.755,9.021-20.59,16.978-29.405,14.048c-3.218-1.07-5.542-6.576-5.158-10.539c0.457-4.73,2.466-5.838,7.271-6.799
			c12.395-2.479,20.686-10.701,25.355-22.471C636.889,596.908,637.635,596.922,641.048,601.108z"/>
		<path fill-rule="evenodd" fill="#FEFEFE" d="M513.045,115.979c-0.702-0.748-1.405-1.495-2.107-2.243
			c-2.598-1.348-5.165-2.758-7.937-3.735c-11-4.056-21.999-8.11-32.999-12.165c-0.153-2.771,1.223-4.045,3.918-3.809
			c1.632,0.144,3.363,0.222,4.845,0.829c7.713,3.163,15.281,6.696,23.075,9.64c2.688,1.016,5.908,0.65,7.025,4.163
			c1.051-0.791,2.088-1.603,3.157-2.368c1.005-0.721,2.046-1.393,3.07-2.086c0.536,1.053,1.518,2.104,1.523,3.158
			c0.015,2.877-0.383,5.756-0.616,8.634c-0.309,0.342-0.695,0.493-1.151,0.481C514.205,116.465,513.529,116.567,513.045,115.979z"/>
		<path fill-rule="evenodd" fill="#FEFEFE" d="M617.129,246.005c-0.365-0.669-0.731-1.338-1.097-2.007
			c-0.955-3.999-1.91-7.999-2.866-11.999c6.443,0.04,8.657,2.495,7.706,9.215c-0.329,2.325-0.275,3.619,1.752,5.394
			c3.993,3.499,2.92,10.746-1.46,13.355c-0.729-2.965-1.459-5.93-2.188-8.896C617.894,249.55,619.373,247.099,617.129,246.005z"/>
		<path fill-rule="evenodd" fill="#FEFEFE" d="M372.996,91.835c-1.665,0.389-3.33,0.776-4.995,1.165
			c-1.512,1.103-3.404-0.058-4.952,0.834c-4.619,1.09-9.238,2.18-13.857,3.271c-3.674-3.123-0.438-4.261,1.745-4.828
			c3.905-1.015,8.383-0.735,9.356-6.158c0.075-0.417,0.948-0.845,1.52-0.985C363.072,84.823,372.261,90.416,372.996,91.835z"/>
		<path fill-rule="evenodd" fill="#FEFEFE" d="M625.949,319.972c0.07-1.343,0.142-2.687,0.212-4.03
			c0.579-5.629,0.579-11.259,0-16.889c-0.07-1.675-0.141-3.351-0.211-5.025c3.561-0.431,5.246,0.897,5.102,4.728
			c-0.206,5.491-0.206,11.001,0,16.491C631.196,319.077,629.51,320.404,625.949,319.972z"/>
		<path fill-rule="evenodd" fill="#FEFEFE" d="M624.166,276.053c-0.063-0.329-0.126-0.659-0.189-0.988
			c-1.222-1.87,0.368-4.216-1.026-6.057l0.022,0.035c-0.67-1.353-0.707-2.7,0.027-4.043c2.617,0.523,4.721,1.286,4.373,4.787
			c-0.125,1.26,0.907,2.787,1.736,3.964c3.241,4.605-0.865,8.907-0.522,13.389c0.017,0.22-1.684,0.57-2.585,0.86
			c-1.039-1.155-0.006-2.751-0.838-3.95c-0.062-0.66-0.126-1.319-0.189-1.979C623.873,280.176,625.094,277.97,624.166,276.053z"/>
		<path fill-rule="evenodd" fill="#FEFEFE" d="M609.975,386.932c0.396-1.311,0.793-2.621,1.189-3.932
			c3.878,1.054,5.237,4.754,2.982,8.128c-0.699,1.046-2.024,2.093-2.01,3.124c0.072,5.15-2.939,6.095-7.132,5.748
			c-0.189-2.297,1.582-3.956,1.972-6.065c0.308-0.656,0.616-1.313,0.925-1.97C609.364,390.605,609.02,388.5,609.975,386.932z"/>
		<path fill-rule="evenodd" fill="#FEFEFE" d="M589.166,184.999c-1.061-1.651-2.121-3.303-3.182-4.953
			c-0.833-1.466-2.065-2.638-2.971-4.05l-0.007-0.009c-1.088-1.854-2.895-3.137-3.976-4.996l-0.017-0.02
			c-0.498-1.411-2.575-2.022-2.014-3.971c5.471,1.892,9.658,5.35,12.616,10.316c0.573,0.964,1.053,2.021,1.79,2.843
			C594.499,183.602,592.615,184.64,589.166,184.999z"/>
		<path fill-rule="evenodd" fill="#FEFEFE" d="M389.05,89.832c-1.017,0.056-2.034,0.112-3.051,0.168
			c-1.85,1.244-4.155-0.286-6.001,0.986l-0.012,0.007c-1.328,0.734-2.657,0.734-3.986,0c0.987-5.523,2.32-6.374,7.398-5.171
			c1.053,0.25,2.312-0.555,3.483-0.58c3.025-0.065,7.04-1.822,7.118,3.754C392.491,90.112,390.596,88.938,389.05,89.832z"/>
		<path fill-rule="evenodd" fill="#FEFEFE" d="M621.163,352.037c0.571-2.689,1.143-5.379,1.714-8.067
			c1.373,1.216,2.856,2.331,4.082,3.682c0.97,1.067,1.773,2.354,2.371,3.67c0.517,1.139,0.64,2.456,0.937,3.693
			c-1.317,0.051-2.788,0.496-3.918,0.061C624.504,354.365,622.88,353.08,621.163,352.037z"/>
		<path fill-rule="evenodd" fill="#FEFEFE" d="M460.959,95.115c-2.997-0.665-5.993-1.33-8.989-1.995
			c1.245-2.535,2.4-5.129,3.904-7.501c0.122-0.193,3.479,0.804,3.847,1.797C460.603,89.809,460.603,92.527,460.959,95.115z"/>
		<path fill-rule="evenodd" fill="#FEFEFE" d="M445.992,92.003c-0.35-0.059-0.699-0.117-1.049-0.176
			c-1.551-0.876-3.438,0.269-4.951-0.824c-0.346-0.058-0.691-0.115-1.037-0.173c-0.554-0.511-1.51-0.105-1.955-0.86
			c-0.078-1.518-0.156-3.035-0.233-4.553c1.311,0.338,2.61,0.733,3.937,0.996c1.344,0.265,2.735,0.652,4.068,0.541
			c3.777-0.314,5.729,1.035,5.229,5.044C448.665,92.722,447.329,92.728,445.992,92.003z"/>
		<path fill-rule="evenodd" fill="#FEFEFE" d="M597.913,199.021c-0.309-0.66-0.618-1.319-0.928-1.979
			c-1.198-1.567-1.649-3.593-3.076-5.021c-0.247-0.352-0.494-0.702-0.741-1.053c0.849-0.477,1.91-1.532,2.503-1.314
			c1.408,0.519,3.819,2.047,3.684,2.456c-1.525,4.59,8.964,6.463,2.646,11.889C599.078,203.62,599.861,200.2,597.913,199.021z"/>
		<path fill-rule="evenodd" fill="#FEFEFE" d="M624.975,330.93c0.062-0.661,0.126-1.323,0.188-1.984
			c0.835-1.197-0.203-2.793,0.842-3.945c2.985,0.7,6.431,8.745,4.277,10.688c-1.022,0.923-3.477,0.258-5.282,0.312
			C624.242,334.313,624.271,332.624,624.975,330.93z"/>
		<path fill-rule="evenodd" fill="#FEFEFE" d="M616.161,369.001c1.001-3,2.001-5.999,3.002-8.999
			c3.958-0.205,3.838,2.491,3.855,5.249c0.02,3.119-1.747,3.897-4.415,3.754C617.792,368.962,616.976,369,616.161,369.001z"/>
		<path fill-rule="evenodd" fill="#FEFEFE" d="M414.998,89.005c-3.333-0.057-6.666-0.113-9.999-0.171
			c-0.506-4.128,1.745-4.896,5.329-4.921C414.123,83.887,415.365,85.541,414.998,89.005z"/>
		<path fill-rule="evenodd" fill="#FEFEFE" d="M432.992,90.003c-0.683-0.056-1.364-0.111-2.047-0.168
			c-1.887-0.95-4.09,0.335-5.945-0.841c-0.203-4.865,3.356-3.868,6.207-3.99c3.614-0.154,3.935,2.209,3.793,4.934
			C434.351,90.582,433.681,90.575,432.992,90.003z"/>
		<path fill-rule="evenodd" fill="#FEFEFE" d="M544.002,135.005c6.551-1.16,10.605,2.082,9.997,7.994
			c-2.461,0.322-3.113-2.34-4.972-3.013l-0.02-0.018c-1.855-1.084-3.145-2.877-4.984-3.98l-0.013-0.012
			c-0.345-0.213-0.461-0.428-0.349-0.645C543.774,135.114,543.887,135.005,544.002,135.005z"/>
		<path fill-rule="evenodd" fill="#FEFEFE" d="M597.913,199.021c1.362,1.659,2.725,3.319,4.087,4.979c1.667,3.333,3.333,6.667,5,10
			c1.429,1.444,2.465,2.968,1.003,4.993C604.64,212.336,601.276,205.679,597.913,199.021z"/>
		<path fill-rule="evenodd" fill="#FEFEFE" d="M534.951,129.105c-1.662-0.994-3.324-1.988-4.986-2.983
			c1.367-0.973,2.735-1.945,4.103-2.919C534.362,125.171,534.656,127.138,534.951,129.105z"/>
		<path fill-rule="evenodd" fill="#FEFEFE" d="M632.061,125.24c-1.732,1.291-2.642,2.488-3.566,2.501
			c-0.81,0.011-2.24-1.275-2.289-2.057c-0.051-0.825,1.128-2.339,1.918-2.444C629.047,123.117,630.131,124.188,632.061,125.24z"/>
		<path fill-rule="evenodd" fill="#FEFEFE" d="M575.057,144.239c-1.73,1.29-2.639,2.487-3.564,2.501
			c-0.808,0.012-2.24-1.276-2.287-2.056c-0.05-0.827,1.127-2.34,1.917-2.446C572.046,142.114,573.13,143.188,575.057,144.239z"/>
		<path fill-rule="evenodd" fill="#FEFEFE" d="M594.058,144.769c-1.933,1.047-3.021,2.116-3.941,1.988
			c-0.791-0.11-1.962-1.625-1.91-2.452c0.049-0.779,1.485-2.06,2.294-2.047C591.424,142.272,592.329,143.473,594.058,144.769z"/>
		<path fill-rule="evenodd" fill="#FEFEFE" d="M438.294,45.784c1.276,1.903,2.534,2.967,2.393,3.787
			c-0.156,0.901-1.603,1.579-2.486,2.354c-0.723-0.839-1.923-1.623-2.025-2.532C436.08,48.559,437.169,47.59,438.294,45.784z"/>
		<path fill-rule="evenodd" fill="#FEFEFE" d="M608.993,148.226c-0.977-1.904-1.978-2.959-1.819-3.793
			c0.169-0.89,1.435-1.571,2.221-2.344c0.819,0.836,2.222,1.628,2.29,2.521C611.749,145.46,610.419,146.415,608.993,148.226z"/>
		<path fill-rule="evenodd" fill="#FEFEFE" d="M627.993,148.226c-0.977-1.904-1.978-2.959-1.819-3.793
			c0.169-0.89,1.435-1.571,2.221-2.344c0.819,0.836,2.222,1.628,2.29,2.521C630.749,145.46,629.419,146.415,627.993,148.226z"/>
		<path fill-rule="evenodd" fill="#FEFEFE" d="M594.059,163.375c-1.775,1.229-2.731,2.397-3.664,2.379
			c-0.801-0.016-2.172-1.372-2.194-2.167c-0.022-0.817,1.229-2.282,2.021-2.352C591.155,161.153,592.195,162.263,594.059,163.375z"
			/>
		<path fill-rule="evenodd" fill="#FEFEFE" d="M613.06,163.758c-1.929,1.052-3.014,2.125-3.936,1.999
			c-0.792-0.107-1.966-1.619-1.918-2.449c0.046-0.778,1.482-2.069,2.287-2.054C610.425,161.272,611.333,162.47,613.06,163.758z"/>
		<path fill-rule="evenodd" fill="#FEFEFE" d="M628.288,167.226c-1.123-1.807-2.21-2.776-2.112-3.608
			c0.105-0.912,1.304-1.697,2.026-2.538c0.882,0.775,2.327,1.455,2.481,2.355C630.824,164.257,629.567,165.318,628.288,167.226z"/>
		<path fill-rule="evenodd" fill="#FEFEFE" d="M461.058,49.769c-1.933,1.047-3.021,2.116-3.941,1.988
			c-0.791-0.11-1.962-1.625-1.91-2.452c0.049-0.779,1.485-2.06,2.294-2.047C458.424,47.272,459.329,48.473,461.058,49.769z"/>
		<path fill-rule="evenodd" fill="#FEFEFE" d="M627.823,262.229c-0.893-1.966-1.841-3.065-1.646-3.896
			c0.205-0.876,1.703-2.222,2.278-2.063c0.944,0.26,2.189,1.555,2.21,2.439C630.687,259.57,629.331,260.465,627.823,262.229z"/>
		<path fill-rule="evenodd" fill="#FEFEFE" d="M476.014,45.779c1.417,1.816,2.742,2.779,2.671,3.625
			c-0.075,0.896-1.478,1.679-2.301,2.512c-0.782-0.775-2.045-1.463-2.208-2.352C474.021,48.728,475.028,47.679,476.014,45.779z"/>
		<path fill-rule="evenodd" fill="#FEFEFE" d="M499.06,49.758c-1.929,1.052-3.014,2.125-3.936,1.999
			c-0.792-0.107-1.966-1.619-1.918-2.449c0.046-0.778,1.482-2.069,2.287-2.054C496.425,47.272,497.333,48.47,499.06,49.758z"/>
		<path fill-rule="evenodd" fill="#FEFEFE" d="M627.697,235.804c1.563,1.708,2.943,2.553,2.955,3.415
			c0.013,0.879-1.188,2.222-2.116,2.502c-0.583,0.177-2.124-1.105-2.353-1.967C625.964,238.922,626.875,237.789,627.697,235.804z"/>
		<path fill-rule="evenodd" fill="#FEFEFE" d="M613.057,182.239c-1.73,1.29-2.639,2.487-3.564,2.501
			c-0.808,0.012-2.24-1.276-2.287-2.056c-0.049-0.827,1.127-2.34,1.917-2.446C610.046,180.114,611.13,181.188,613.057,182.239z"/>
		<path fill-rule="evenodd" fill="#FEFEFE" d="M632.057,220.239c-1.73,1.29-2.639,2.487-3.564,2.501
			c-0.808,0.012-2.24-1.276-2.287-2.056c-0.05-0.827,1.127-2.34,1.917-2.446C629.046,218.114,630.13,219.188,632.057,220.239z"/>
		<path fill-rule="evenodd" fill="#FEFEFE" d="M513.695,53.201c-0.822-1.987-1.733-3.12-1.513-3.952
			c0.229-0.862,1.771-2.144,2.354-1.969c0.929,0.28,2.132,1.627,2.116,2.503C516.637,50.651,515.257,51.494,513.695,53.201z"/>
		<path fill-rule="evenodd" fill="#FEFEFE" d="M632.058,201.769c-1.933,1.047-3.021,2.116-3.941,1.988
			c-0.791-0.11-1.962-1.625-1.91-2.452c0.049-0.779,1.485-2.06,2.294-2.047C629.424,199.272,630.329,200.473,632.058,201.769z"/>
		<path fill-rule="evenodd" fill="#FEFEFE" d="M628.014,178.779c1.418,1.816,2.742,2.779,2.671,3.625
			c-0.075,0.896-1.478,1.679-2.301,2.512c-0.782-0.775-2.045-1.463-2.208-2.352C626.022,181.728,627.028,180.679,628.014,178.779z"
			/>
		<path fill-rule="evenodd" fill="#FEFEFE" d="M613.05,201.498c-1.806,1.169-2.804,2.316-3.742,2.27
			c-0.795-0.04-2.111-1.46-2.112-2.271c0-0.81,1.317-2.231,2.111-2.271C610.247,199.182,611.245,200.328,613.05,201.498z"/>
		<path fill-rule="evenodd" fill="#FEFEFE" d="M532.695,53.201c-0.822-1.987-1.733-3.12-1.513-3.952
			c0.229-0.862,1.771-2.144,2.354-1.969c0.929,0.28,2.132,1.627,2.116,2.503C535.637,50.651,534.257,51.494,532.695,53.201z"/>
		<path fill-rule="evenodd" fill="#FEFEFE" d="M594.053,49.5c-1.807,1.169-2.806,2.315-3.744,2.269
			c-0.796-0.04-2.113-1.46-2.113-2.269c0-0.81,1.318-2.229,2.113-2.269C591.248,47.186,592.247,48.332,594.053,49.5z"/>
		<path fill-rule="evenodd" fill="#FEFEFE" d="M556.058,49.769c-1.933,1.047-3.021,2.116-3.941,1.988
			c-0.791-0.11-1.962-1.625-1.91-2.452c0.049-0.779,1.488-2.063,2.294-2.047C553.429,47.277,554.335,48.477,556.058,49.769z"/>
		<path fill-rule="evenodd" fill="#FEFEFE" d="M575.062,49.388c-1.78,1.222-2.741,2.391-3.674,2.367
			c-0.802-0.02-2.165-1.381-2.188-2.181c-0.022-0.813,1.236-2.273,2.03-2.341C572.163,47.153,573.197,48.267,575.062,49.388z"/>
		<path fill-rule="evenodd" fill="#FEFEFE" d="M624.688,524.505c1.821-1.226,2.844-2.435,3.582-2.281
			c0.98,0.204,1.74,1.471,2.596,2.28c-0.856,0.81-1.618,2.073-2.601,2.278C627.529,526.937,626.508,525.729,624.688,524.505z"/>
		<path fill-rule="evenodd" fill="#FEFEFE" d="M622.057,543.239c-1.73,1.29-2.639,2.487-3.564,2.501
			c-0.808,0.012-2.24-1.276-2.287-2.056c-0.05-0.827,1.131-2.347,1.916-2.446C619.054,541.12,620.139,542.191,622.057,543.239z"/>
		<path fill-rule="evenodd" fill="#FEFEFE" d="M636.993,547.226c-0.977-1.904-1.978-2.959-1.819-3.793
			c0.169-0.89,1.435-1.571,2.221-2.344c0.819,0.836,2.22,1.627,2.29,2.521C639.751,544.457,638.421,545.413,636.993,547.226z"/>
		<path fill-rule="evenodd" fill="#FEFEFE" d="M385.053,49.5c-1.807,1.169-2.806,2.315-3.744,2.269
			c-0.796-0.04-2.113-1.46-2.113-2.269c0-0.81,1.317-2.229,2.113-2.269C382.247,47.185,383.246,48.331,385.053,49.5z"/>
		<path fill-rule="evenodd" fill="#FEFEFE" d="M617.823,566.23c-0.893-1.967-1.841-3.066-1.646-3.897
			c0.205-0.876,1.703-2.222,2.277-2.063c0.945,0.26,2.187,1.553,2.211,2.439C620.689,563.566,619.334,564.462,617.823,566.23z"/>
		<path fill-rule="evenodd" fill="#FEFEFE" d="M641.062,562.24c-1.733,1.291-2.643,2.488-3.568,2.501
			c-0.809,0.011-2.239-1.275-2.288-2.057c-0.051-0.825,1.128-2.338,1.918-2.444C638.047,560.117,639.131,561.188,641.062,562.24z"/>
		<path fill-rule="evenodd" fill="#FEFEFE" d="M641.06,581.758c-1.929,1.052-3.014,2.125-3.936,1.999
			c-0.792-0.107-1.966-1.619-1.918-2.449c0.046-0.778,1.48-2.065,2.287-2.054C638.42,579.268,639.328,580.466,641.06,581.758z"/>
		<path fill-rule="evenodd" fill="#FEFEFE" d="M361.993,53.226c-0.977-1.904-1.979-2.959-1.819-3.793
			c0.169-0.89,1.435-1.571,2.221-2.344c0.819,0.836,2.222,1.628,2.29,2.521C364.749,50.46,363.419,51.416,361.993,53.226z"/>
		<path fill-rule="evenodd" fill="#FEFEFE" d="M342.993,53.226c-0.977-1.904-1.979-2.959-1.819-3.793
			c0.169-0.89,1.435-1.571,2.221-2.344c0.819,0.836,2.222,1.628,2.289,2.521C345.749,50.46,344.419,51.416,342.993,53.226z"/>
		<path fill-rule="evenodd" fill="#FEFEFE" d="M328.062,49.388c-1.78,1.222-2.741,2.391-3.674,2.367
			c-0.802-0.02-2.165-1.382-2.188-2.181c-0.022-0.813,1.236-2.273,2.03-2.341C325.163,47.153,326.197,48.267,328.062,49.388z"/>
		<path fill-rule="evenodd" fill="#FEFEFE" d="M309.053,49.5c-1.807,1.169-2.806,2.315-3.745,2.269
			c-0.795-0.04-2.113-1.46-2.113-2.269c0-0.81,1.318-2.229,2.113-2.269C306.247,47.185,307.246,48.331,309.053,49.5z"/>
		<path fill-rule="evenodd" fill="#FEFEFE" d="M290.053,49.5c-1.807,1.169-2.806,2.315-3.745,2.269
			c-0.795-0.04-2.113-1.46-2.113-2.269c0-0.81,1.318-2.229,2.113-2.269C287.247,47.185,288.246,48.331,290.053,49.5z"/>
		<path fill-rule="evenodd" fill="#FEFEFE" d="M271.06,49.758c-1.929,1.052-3.014,2.125-3.936,1.999
			c-0.791-0.107-1.965-1.619-1.917-2.449c0.045-0.778,1.482-2.069,2.286-2.054C268.424,47.272,269.333,48.47,271.06,49.758z"/>
		<path fill-rule="evenodd" fill="#FEFEFE" d="M252.058,49.769c-1.933,1.047-3.021,2.116-3.941,1.988
			c-0.791-0.11-1.961-1.625-1.91-2.452c0.048-0.779,1.485-2.06,2.294-2.047C249.424,47.272,250.329,48.473,252.058,49.769z"/>
		<path fill-rule="evenodd" fill="#FEFEFE" d="M229.136,53.21c-1.043-1.839-2.093-2.854-1.966-3.69
			c0.137-0.902,1.374-1.638,2.131-2.446c0.855,0.81,2.289,1.549,2.398,2.448C231.801,50.359,230.493,51.368,229.136,53.21z"/>
		<path fill-rule="evenodd" fill="#FEFEFE" d="M210.014,45.779c1.417,1.816,2.742,2.779,2.67,3.625
			c-0.075,0.896-1.478,1.679-2.301,2.512c-0.782-0.775-2.045-1.463-2.208-2.352C208.022,48.728,209.028,47.679,210.014,45.779z"/>
		<path fill-rule="evenodd" fill="#FEFEFE" d="M195.056,49.629c-1.871,1.111-2.913,2.22-3.843,2.133
			c-0.792-0.074-2.038-1.541-2.012-2.359c0.024-0.794,1.399-2.146,2.201-2.161C192.333,47.225,193.285,48.396,195.056,49.629z"/>
		<path fill-rule="evenodd" fill="#FEFEFE" d="M423.062,49.388c-1.78,1.223-2.741,2.391-3.674,2.367
			c-0.802-0.02-2.165-1.382-2.188-2.181c-0.022-0.813,1.236-2.273,2.03-2.341C420.163,47.153,421.197,48.267,423.062,49.388z"/>
		<path fill-rule="evenodd" fill="#FEFEFE" d="M624.688,372.506c1.821-1.227,2.844-2.436,3.581-2.282
			c0.981,0.204,1.741,1.471,2.597,2.281c-0.856,0.809-1.618,2.072-2.601,2.277C627.529,374.937,626.508,373.729,624.688,372.506z"/>
		<path fill-rule="evenodd" fill="#FEFEFE" d="M627.824,395.229c-0.894-1.966-1.842-3.065-1.646-3.896
			c0.205-0.876,1.703-2.222,2.278-2.063c0.944,0.26,2.189,1.555,2.21,2.439C630.687,392.57,629.331,393.465,627.824,395.229z"/>
		<path fill-rule="evenodd" fill="#FEFEFE" d="M613.05,410.498c-1.806,1.169-2.804,2.316-3.742,2.27
			c-0.795-0.04-2.111-1.46-2.112-2.271c0-0.81,1.316-2.23,2.111-2.271C610.245,408.181,611.243,409.327,613.05,410.498z"/>
		<path fill-rule="evenodd" fill="#FEFEFE" d="M627.697,406.804c1.563,1.708,2.943,2.553,2.955,3.415
			c0.013,0.879-1.188,2.222-2.116,2.502c-0.583,0.177-2.128-1.106-2.352-1.967C625.966,409.916,626.878,408.783,627.697,406.804z"/>
		<path fill-rule="evenodd" fill="#FEFEFE" d="M400.288,53.226c-1.123-1.807-2.21-2.776-2.113-3.608
			c0.106-0.912,1.305-1.697,2.027-2.538c0.882,0.775,2.331,1.457,2.481,2.354C402.821,50.262,401.564,51.322,400.288,53.226z"/>
		<path fill-rule="evenodd" fill="#FEFEFE" d="M613.05,429.498c-1.806,1.169-2.804,2.316-3.742,2.27
			c-0.795-0.04-2.111-1.46-2.112-2.271c0-0.81,1.316-2.23,2.111-2.271C610.245,427.181,611.243,428.327,613.05,429.498z"/>
		<path fill-rule="evenodd" fill="#FEFEFE" d="M628.014,425.779c1.418,1.816,2.742,2.779,2.671,3.625
			c-0.075,0.896-1.478,1.679-2.301,2.512c-0.782-0.775-2.045-1.463-2.208-2.352C626.022,428.728,627.028,427.679,628.014,425.779z"
			/>
		<path fill-rule="evenodd" fill="#FEFEFE" d="M613.06,448.625c-1.87,1.113-2.913,2.225-3.842,2.137
			c-0.795-0.074-2.038-1.538-2.018-2.361c0.019-0.79,1.397-2.147,2.196-2.16C610.331,446.225,611.284,447.395,613.06,448.625z"/>
		<path fill-rule="evenodd" fill="#FEFEFE" d="M632.05,448.498c-1.806,1.169-2.804,2.316-3.742,2.27
			c-0.795-0.04-2.111-1.46-2.112-2.271c0-0.81,1.316-2.23,2.111-2.271C629.245,446.18,630.243,447.327,632.05,448.498z"/>
		<path fill-rule="evenodd" fill="#FEFEFE" d="M608.824,471.23c-0.894-1.967-1.842-3.066-1.646-3.897
			c0.205-0.876,1.703-2.222,2.278-2.063c0.944,0.26,2.189,1.555,2.21,2.439C611.687,468.57,610.331,469.465,608.824,471.23z"/>
		<path fill-rule="evenodd" fill="#FEFEFE" d="M628.014,463.779c1.418,1.816,2.742,2.779,2.671,3.625
			c-0.075,0.896-1.478,1.679-2.301,2.512c-0.782-0.775-2.045-1.463-2.208-2.352C626.022,466.728,627.028,465.679,628.014,463.779z"
			/>
		<path fill-rule="evenodd" fill="#FEFEFE" d="M608.992,490.226c-0.976-1.904-1.978-2.959-1.818-3.793
			c0.169-0.89,1.435-1.571,2.221-2.344c0.819,0.836,2.22,1.627,2.29,2.521C611.751,487.457,610.421,488.413,608.992,490.226z"/>
		<path fill-rule="evenodd" fill="#FEFEFE" d="M628.136,490.21c-1.044-1.839-2.093-2.854-1.966-3.69
			c0.137-0.902,1.374-1.638,2.132-2.446c0.855,0.81,2.288,1.549,2.397,2.448C630.801,487.359,629.493,488.368,628.136,490.21z"/>
		<path fill-rule="evenodd" fill="#FEFEFE" d="M608.844,501.778c1.498,1.769,2.852,2.67,2.823,3.525
			c-0.028,0.89-1.272,2.173-2.22,2.435c-0.571,0.157-2.07-1.194-2.269-2.068C606.989,504.834,607.942,503.739,608.844,501.778z"/>
		<path fill-rule="evenodd" fill="#FEFEFE" d="M632.06,505.625c-1.87,1.113-2.912,2.225-3.842,2.137
			c-0.795-0.074-2.038-1.538-2.018-2.361c0.02-0.79,1.397-2.147,2.196-2.161C629.331,503.225,630.284,504.395,632.06,505.625z"/>
		<path fill-rule="evenodd" fill="#FEFEFE" d="M333.033,508.19c5.88,1.938,11.761,3.877,17.642,5.815
			C344.794,512.067,338.913,510.129,333.033,508.19z"/>
		<path fill-rule="evenodd" fill="#FEFEFE" d="M608.844,520.778c1.499,1.769,2.852,2.67,2.823,3.525
			c-0.028,0.889-1.272,2.173-2.22,2.435c-0.571,0.157-2.071-1.194-2.269-2.068C606.989,523.833,607.943,522.737,608.844,520.778z"/>
		<path fill-rule="evenodd" fill="#FEFEFE" d="M627.823,72.23c-0.893-1.967-1.841-3.066-1.646-3.897
			c0.205-0.876,1.703-2.222,2.277-2.063c0.945,0.26,2.187,1.553,2.211,2.439C630.689,69.566,629.334,70.462,627.823,72.23z"/>
		<path fill-rule="evenodd" fill="#FEFEFE" d="M195.062,87.388c-1.78,1.222-2.741,2.39-3.674,2.367
			c-0.802-0.02-2.166-1.382-2.188-2.181c-0.022-0.813,1.239-2.276,2.029-2.341C192.167,85.157,193.203,86.27,195.062,87.388z"/>
		<path fill-rule="evenodd" fill="#FEFEFE" d="M214.06,87.625c-1.871,1.113-2.913,2.225-3.843,2.137
			c-0.794-0.074-2.038-1.538-2.017-2.361c0.019-0.79,1.397-2.147,2.196-2.16C211.331,85.225,212.285,86.395,214.06,87.625z"/>
		<path fill-rule="evenodd" fill="#FEFEFE" d="M233.05,87.498c-1.806,1.169-2.804,2.316-3.742,2.27
			c-0.795-0.04-2.111-1.46-2.112-2.271c0-0.81,1.316-2.23,2.111-2.271C230.245,85.181,231.243,86.327,233.05,87.498z"/>
		<path fill-rule="evenodd" fill="#FEFEFE" d="M252.056,87.629c-1.871,1.111-2.913,2.22-3.843,2.133
			c-0.792-0.074-2.038-1.541-2.013-2.359c0.024-0.794,1.399-2.146,2.201-2.161C249.333,85.225,250.285,86.396,252.056,87.629z"/>
		<path fill-rule="evenodd" fill="#FEFEFE" d="M267.288,91.226c-1.123-1.807-2.209-2.776-2.113-3.608
			c0.106-0.912,1.304-1.697,2.027-2.538c0.882,0.775,2.327,1.455,2.481,2.355C269.824,88.257,268.567,89.318,267.288,91.226z"/>
		<path fill-rule="evenodd" fill="#FEFEFE" d="M290.062,87.388c-1.78,1.222-2.741,2.39-3.674,2.367
			c-0.802-0.02-2.166-1.382-2.188-2.18c-0.022-0.814,1.237-2.273,2.03-2.342C287.163,85.153,288.198,86.267,290.062,87.388z"/>
		<path fill-rule="evenodd" fill="#FEFEFE" d="M305.014,83.779c1.417,1.816,2.742,2.779,2.67,3.625
			c-0.075,0.896-1.478,1.679-2.301,2.512c-0.782-0.775-2.044-1.463-2.208-2.353C303.021,86.729,304.027,85.681,305.014,83.779z"/>
		<path fill-rule="evenodd" fill="#FEFEFE" d="M323.844,83.778c1.499,1.769,2.852,2.67,2.823,3.525
			c-0.029,0.89-1.272,2.173-2.22,2.435c-0.571,0.158-2.07-1.194-2.269-2.068C321.989,86.834,322.942,85.739,323.844,83.778z"/>
		<path fill-rule="evenodd" fill="#FEFEFE" d="M347.05,87.498c-1.806,1.169-2.804,2.316-3.742,2.27
			c-0.795-0.04-2.111-1.46-2.112-2.271c0-0.81,1.317-2.231,2.111-2.271C344.247,85.182,345.245,86.328,347.05,87.498z"/>
		<path fill-rule="evenodd" fill="#FEFEFE" d="M475.698,83.804c1.562,1.708,2.942,2.553,2.954,3.415
			c0.013,0.879-1.188,2.222-2.116,2.502c-0.583,0.177-2.124-1.105-2.353-1.967C473.964,86.922,474.875,85.789,475.698,83.804z"/>
		<path fill-rule="evenodd" fill="#FEFEFE" d="M499.06,87.626c-1.87,1.112-2.912,2.224-3.842,2.136
			c-0.795-0.074-2.038-1.538-2.018-2.361c0.02-0.79,1.397-2.147,2.196-2.16C496.331,85.225,497.284,86.395,499.06,87.626z"/>
		<path fill-rule="evenodd" fill="#FEFEFE" d="M518.059,87.375c-1.775,1.229-2.731,2.397-3.664,2.38
			c-0.801-0.017-2.173-1.373-2.194-2.167c-0.022-0.818,1.227-2.28,2.021-2.353C515.151,85.15,516.19,86.261,518.059,87.375z"/>
		<path fill-rule="evenodd" fill="#FEFEFE" d="M537.06,87.625c-1.87,1.113-2.912,2.225-3.842,2.137
			c-0.795-0.074-2.038-1.538-2.018-2.361c0.019-0.79,1.399-2.149,2.196-2.16C534.334,85.228,535.288,86.396,537.06,87.625z"/>
		<path fill-rule="evenodd" fill="#FEFEFE" d="M556.057,87.629c-1.871,1.111-2.913,2.22-3.843,2.133
			c-0.793-0.074-2.038-1.541-2.013-2.359c0.024-0.794,1.398-2.146,2.201-2.161C553.333,85.225,554.285,86.396,556.057,87.629z"/>
		<path fill-rule="evenodd" fill="#FEFEFE" d="M575.05,87.498c-1.806,1.169-2.804,2.316-3.742,2.27
			c-0.795-0.04-2.111-1.46-2.112-2.271c0-0.81,1.316-2.23,2.111-2.271C572.245,85.18,573.243,86.327,575.05,87.498z"/>
		<path fill-rule="evenodd" fill="#FEFEFE" d="M586.688,87.506c1.821-1.227,2.844-2.436,3.582-2.282
			c0.98,0.204,1.74,1.471,2.596,2.281c-0.856,0.809-1.617,2.067-2.602,2.278C589.535,89.939,588.514,88.732,586.688,87.506z"/>
		<path fill-rule="evenodd" fill="#FEFEFE" d="M608.844,83.778c1.498,1.769,2.852,2.67,2.823,3.525
			c-0.029,0.889-1.272,2.173-2.22,2.435c-0.571,0.158-2.071-1.194-2.269-2.068C606.989,86.833,607.943,85.737,608.844,83.778z"/>
		<path fill-rule="evenodd" fill="#FEFEFE" d="M627.993,91.226c-0.977-1.904-1.978-2.959-1.819-3.793
			c0.169-0.891,1.435-1.571,2.221-2.344c0.819,0.836,2.22,1.627,2.29,2.521C630.751,88.457,629.421,89.413,627.993,91.226z"/>
		<path fill-rule="evenodd" fill="#FEFEFE" d="M210.294,64.784c1.276,1.903,2.535,2.967,2.392,3.787
			c-0.156,0.901-1.602,1.579-2.486,2.354c-0.722-0.839-1.92-1.623-2.025-2.532C208.079,67.562,209.167,66.593,210.294,64.784z"/>
		<path fill-rule="evenodd" fill="#FEFEFE" d="M233.062,68.388c-1.78,1.222-2.741,2.39-3.674,2.367
			c-0.802-0.02-2.166-1.382-2.188-2.181c-0.022-0.813,1.239-2.276,2.029-2.341C230.167,66.157,231.203,67.27,233.062,68.388z"/>
		<path fill-rule="evenodd" fill="#FEFEFE" d="M252.061,68.24c-1.732,1.291-2.642,2.488-3.567,2.501
			c-0.809,0.011-2.24-1.275-2.289-2.057c-0.051-0.825,1.131-2.344,1.917-2.443C249.055,66.122,250.14,67.193,252.061,68.24z"/>
		<path fill-rule="evenodd" fill="#FEFEFE" d="M271.056,68.629c-1.871,1.111-2.913,2.22-3.843,2.133
			c-0.793-0.074-2.038-1.541-2.013-2.359c0.024-0.794,1.399-2.146,2.201-2.161C268.333,66.225,269.285,67.396,271.056,68.629z"/>
		<path fill-rule="evenodd" fill="#FEFEFE" d="M285.824,72.23c-0.893-1.967-1.841-3.066-1.646-3.897
			c0.206-0.876,1.703-2.222,2.278-2.063c0.945,0.26,2.189,1.555,2.21,2.439C288.687,69.57,287.331,70.465,285.824,72.23z"/>
		<path fill-rule="evenodd" fill="#FEFEFE" d="M309.058,68.769c-1.933,1.047-3.021,2.116-3.941,1.988
			c-0.791-0.11-1.961-1.625-1.91-2.452c0.048-0.779,1.485-2.06,2.293-2.047C306.424,66.272,307.329,67.473,309.058,68.769z"/>
		<path fill-rule="evenodd" fill="#FEFEFE" d="M328.057,68.239c-1.73,1.29-2.639,2.487-3.564,2.501
			c-0.808,0.012-2.24-1.276-2.287-2.056c-0.05-0.827,1.127-2.34,1.917-2.446C325.046,66.114,326.13,67.188,328.057,68.239z"/>
		<path fill-rule="evenodd" fill="#FEFEFE" d="M347.06,68.758c-1.929,1.052-3.014,2.125-3.936,1.999
			c-0.792-0.107-1.966-1.619-1.918-2.449c0.046-0.777,1.48-2.065,2.287-2.054C344.419,66.268,345.327,67.466,347.06,68.758z"/>
		<path fill-rule="evenodd" fill="#FEFEFE" d="M366.057,68.238c-1.73,1.291-2.639,2.488-3.564,2.502
			c-0.808,0.012-2.24-1.276-2.287-2.056c-0.05-0.827,1.127-2.34,1.917-2.446C363.046,66.114,364.13,67.188,366.057,68.238z"/>
		<path fill-rule="evenodd" fill="#FEFEFE" d="M385.062,68.388c-1.78,1.222-2.741,2.39-3.674,2.367
			c-0.802-0.02-2.165-1.382-2.188-2.18c-0.022-0.814,1.236-2.274,2.03-2.342C382.163,66.153,383.197,67.267,385.062,68.388z"/>
		<path fill-rule="evenodd" fill="#FEFEFE" d="M400.288,72.226c-1.123-1.807-2.21-2.776-2.112-3.608
			c0.105-0.912,1.304-1.697,2.026-2.538c0.882,0.775,2.327,1.455,2.481,2.355C402.824,69.257,401.567,70.318,400.288,72.226z"/>
		<path fill-rule="evenodd" fill="#FEFEFE" d="M415.688,68.506c1.821-1.227,2.844-2.436,3.582-2.282
			c0.98,0.204,1.74,1.471,2.596,2.281c-0.856,0.809-1.618,2.072-2.601,2.277C418.529,70.937,417.508,69.729,415.688,68.506z"/>
		<path fill-rule="evenodd" fill="#FEFEFE" d="M438.014,64.779c1.417,1.816,2.742,2.779,2.671,3.625
			c-0.075,0.896-1.478,1.679-2.301,2.512c-0.782-0.775-2.044-1.463-2.208-2.353C436.021,67.729,437.027,66.681,438.014,64.779z"/>
		<path fill-rule="evenodd" fill="#FEFEFE" d="M456.695,72.201c-0.822-1.987-1.733-3.12-1.513-3.952
			c0.229-0.862,1.771-2.144,2.354-1.968c0.929,0.279,2.132,1.626,2.116,2.502C459.637,69.651,458.257,70.494,456.695,72.201z"/>
		<path fill-rule="evenodd" fill="#FEFEFE" d="M475.695,72.201c-0.822-1.987-1.733-3.12-1.513-3.952
			c0.229-0.862,1.771-2.144,2.354-1.968c0.929,0.279,2.132,1.626,2.116,2.502C478.637,69.651,477.257,70.494,475.695,72.201z"/>
		<path fill-rule="evenodd" fill="#FEFEFE" d="M495.294,64.784c1.276,1.903,2.534,2.967,2.393,3.787
			c-0.156,0.901-1.603,1.579-2.486,2.354c-0.723-0.839-1.923-1.623-2.025-2.532C493.08,67.559,494.169,66.59,495.294,64.784z"/>
		<path fill-rule="evenodd" fill="#FEFEFE" d="M514.136,72.21c-1.044-1.839-2.093-2.854-1.966-3.69
			c0.137-0.902,1.374-1.638,2.132-2.446c0.855,0.81,2.288,1.549,2.397,2.448C516.801,69.359,515.493,70.368,514.136,72.21z"/>
		<path fill-rule="evenodd" fill="#FEFEFE" d="M537.05,68.498c-1.806,1.169-2.804,2.316-3.742,2.27
			c-0.795-0.04-2.111-1.46-2.112-2.271c0-0.81,1.316-2.23,2.111-2.271C534.245,66.181,535.243,67.327,537.05,68.498z"/>
		<path fill-rule="evenodd" fill="#FEFEFE" d="M552.294,64.784c1.276,1.904,2.534,2.967,2.393,3.787
			c-0.157,0.901-1.603,1.579-2.486,2.354c-0.723-0.839-1.923-1.623-2.025-2.532C550.081,67.559,551.169,66.59,552.294,64.784z"/>
		<path fill-rule="evenodd" fill="#FEFEFE" d="M575.061,68.24c-1.732,1.291-2.642,2.488-3.566,2.501
			c-0.81,0.011-2.24-1.275-2.289-2.057c-0.051-0.825,1.131-2.344,1.916-2.443C572.055,66.122,573.14,67.193,575.061,68.24z"/>
		<path fill-rule="evenodd" fill="#FEFEFE" d="M594.06,68.625c-1.87,1.113-2.912,2.225-3.842,2.137
			c-0.795-0.074-2.038-1.538-2.018-2.361c0.019-0.79,1.399-2.149,2.196-2.16C591.334,66.228,592.288,67.396,594.06,68.625z"/>
		<path fill-rule="evenodd" fill="#FEFEFE" d="M605.688,68.506c1.821-1.227,2.844-2.436,3.582-2.282
			c0.98,0.204,1.74,1.471,2.596,2.281c-0.856,0.809-1.617,2.067-2.602,2.278C608.535,70.939,607.514,69.732,605.688,68.506z"/>
		<path fill-rule="evenodd" fill="#FEFEFE" d="M608.697,121.804c1.563,1.708,2.943,2.553,2.955,3.415
			c0.013,0.879-1.188,2.222-2.116,2.502c-0.583,0.177-2.124-1.105-2.353-1.967C606.964,124.922,607.875,123.789,608.697,121.804z"/>
		<path fill-rule="evenodd" fill="#FEFEFE" d="M594.053,125.5c-1.807,1.169-2.806,2.315-3.744,2.269
			c-0.796-0.04-2.113-1.46-2.113-2.269c0-0.81,1.317-2.229,2.113-2.269C591.247,123.185,592.246,124.331,594.053,125.5z"/>
		<path fill-rule="evenodd" fill="#FEFEFE" d="M570.698,121.804c1.562,1.708,2.942,2.553,2.954,3.415
			c0.013,0.879-1.188,2.222-2.116,2.502c-0.583,0.177-2.124-1.105-2.353-1.967C568.964,124.922,569.875,123.789,570.698,121.804z"/>
		<path fill-rule="evenodd" fill="#FEFEFE" d="M556.062,125.388c-1.78,1.222-2.741,2.391-3.674,2.367
			c-0.802-0.02-2.165-1.382-2.188-2.181c-0.022-0.813,1.237-2.273,2.03-2.341C553.163,123.153,554.197,124.267,556.062,125.388z"/>
		<path fill-rule="evenodd" fill="#FEFEFE" d="M613.062,49.388c-1.78,1.222-2.741,2.391-3.674,2.367
			c-0.802-0.02-2.165-1.381-2.188-2.181c-0.022-0.813,1.236-2.273,2.03-2.341C610.163,47.153,611.197,48.267,613.062,49.388z"/>
		<path fill-rule="evenodd" fill="#FEFEFE" d="M624.688,106.506c1.821-1.227,2.844-2.436,3.582-2.282
			c0.98,0.204,1.74,1.471,2.596,2.281c-0.856,0.809-1.617,2.067-2.602,2.278C627.535,108.939,626.514,107.732,624.688,106.506z"/>
		<path fill-rule="evenodd" fill="#FEFEFE" d="M608.698,102.804c1.562,1.708,2.942,2.553,2.954,3.415
			c0.013,0.879-1.188,2.222-2.116,2.503c-0.583,0.176-2.124-1.106-2.353-1.968C606.964,105.922,607.875,104.789,608.698,102.804z"/>
		<path fill-rule="evenodd" fill="#FEFEFE" d="M589.698,102.804c1.562,1.708,2.942,2.553,2.954,3.415
			c0.013,0.879-1.188,2.222-2.116,2.502c-0.583,0.177-2.124-1.105-2.353-1.967C587.964,105.922,588.875,104.789,589.698,102.804z"/>
		<path fill-rule="evenodd" fill="#FEFEFE" d="M575.059,106.375c-1.775,1.229-2.731,2.397-3.664,2.38
			c-0.801-0.017-2.173-1.373-2.194-2.167c-0.022-0.818,1.227-2.28,2.021-2.353C572.151,104.15,573.19,105.261,575.059,106.375z"/>
		<path fill-rule="evenodd" fill="#FEFEFE" d="M556.062,106.388c-1.78,1.222-2.741,2.39-3.674,2.367
			c-0.802-0.02-2.165-1.382-2.188-2.181c-0.022-0.813,1.239-2.276,2.029-2.341C553.168,104.157,554.203,105.27,556.062,106.388z"/>
		<path fill-rule="evenodd" fill="#FEFEFE" d="M532.844,102.778c1.498,1.769,2.852,2.67,2.823,3.525
			c-0.029,0.89-1.272,2.173-2.22,2.435c-0.571,0.158-2.07-1.194-2.269-2.068C530.989,105.833,531.943,104.737,532.844,102.778z"/>
		<path fill-rule="evenodd" fill="#FEFEFE" d="M628.136,53.21c-1.044-1.839-2.093-2.854-1.966-3.689
			c0.137-0.903,1.374-1.639,2.132-2.447c0.855,0.81,2.289,1.549,2.397,2.448C630.8,50.36,629.492,51.369,628.136,53.21z"/>
		<path fill-rule="evenodd" fill="#FEFEFE" d="M195.057,68.629c-1.871,1.111-2.913,2.22-3.843,2.133
			c-0.792-0.074-2.038-1.541-2.013-2.359c0.024-0.794,1.399-2.146,2.201-2.161C192.333,66.225,193.285,67.396,195.057,68.629z"/>
		<path fill-rule="evenodd" fill="#FEFEFE" d="M398,88.953c0.609-1.288,1.219-2.576,1.827-3.864
			c1.392,1.304,2.782,2.607,4.173,3.911l0.001,0.001C401.995,89.741,399.993,89.811,398,88.953z"/>
		<path fill-rule="evenodd" fill="#FEFEFE" d="M192.833,294.024c0,6.649,0,13.299,0,19.948
			C192.833,307.323,192.833,300.674,192.833,294.024z"/>
		<path fill-rule="evenodd" fill="#FEFEFE" d="M417,88.939c0.608-1.283,1.218-2.567,1.826-3.851
			c1.392,1.297,2.782,2.594,4.174,3.891C420.995,89.758,418.994,89.815,417,88.939z"/>
		<path fill-rule="evenodd" fill="#FEFEFE" d="M305.974,496.088c3.898,1.973,7.796,3.945,11.694,5.919
			C313.771,500.033,309.872,498.061,305.974,496.088z"/>
		<path fill-rule="evenodd" fill="#FEFEFE" d="M417,88.939c2,0.014,4,0.027,6,0.04c0.667,0.005,1.333,0.01,2,0.015
			c1.981,0.28,3.964,0.562,5.945,0.842c-5.317-0.278-10.634-0.555-15.951-0.832C415.663,88.982,416.331,88.961,417,88.939z"/>
		<path fill-rule="evenodd" fill="#FEFEFE" d="M398,88.953c2,0.016,4.001,0.031,6.001,0.048c-4.983,0.277-9.968,0.555-14.951,0.831
			c1.649-0.278,3.3-0.557,4.95-0.836C395.333,88.981,396.667,88.968,398,88.953z"/>
		<path fill-rule="evenodd" fill="#FEFEFE" d="M416.031,522.011c4.979-0.281,9.959-0.562,14.938-0.844
			C425.99,521.448,421.011,521.729,416.031,522.011z"/>
		<path fill-rule="evenodd" fill="#FEFEFE" d="M388.03,521.169c4.982,0.279,9.964,0.56,14.945,0.839
			C397.994,521.729,393.013,521.448,388.03,521.169z"/>
		<path fill-rule="evenodd" fill="#FEFEFE" d="M215.807,208.03c-1.619,3.62-3.238,7.241-4.857,10.862
			C212.568,215.271,214.188,211.65,215.807,208.03z"/>
		<path fill-rule="evenodd" fill="#FEFEFE" d="M567.958,452.99c2.346-2.668,4.691-5.336,7.038-8.003
			C572.649,447.654,570.304,450.322,567.958,452.99z"/>
		<path fill-rule="evenodd" fill="#FEFEFE" d="M572.986,164.04c-2.354-2.674-4.706-5.349-7.059-8.022
			C568.28,158.691,570.633,161.366,572.986,164.04z"/>
		<path fill-rule="evenodd" fill="#FEFEFE" d="M251.754,157.048c-2.25,2.323-4.5,4.646-6.751,6.969
			C247.254,161.694,249.504,159.371,251.754,157.048z"/>
		<path fill-rule="evenodd" fill="#FEFEFE" d="M556.991,463.997c2.335-2.336,4.67-4.671,7.006-7.007
			C561.661,459.326,559.326,461.661,556.991,463.997z"/>
		<path fill-rule="evenodd" fill="#FEFEFE" d="M320.03,503.18c3.212,1.275,6.425,2.551,9.637,3.827
			C326.455,505.731,323.242,504.455,320.03,503.18z"/>
		<path fill-rule="evenodd" fill="#FEFEFE" d="M549.027,139.986c1.657,1.004,3.314,2.008,4.972,3.013
			c0.662,1.023,1.323,2.048,1.984,3.072C553.665,144.043,551.347,142.015,549.027,139.986z"/>
		<path fill-rule="evenodd" fill="#FEFEFE" d="M193.833,281.027c-0.287,3.296-0.574,6.591-0.861,9.887
			C193.258,287.618,193.545,284.323,193.833,281.027z"/>
		<path fill-rule="evenodd" fill="#FEFEFE" d="M625.164,284.05c0.279,1.316,0.559,2.634,0.838,3.95
			c-0.01,2.016-0.021,4.031-0.031,6.046C625.702,290.714,625.433,287.382,625.164,284.05z"/>
		<path fill-rule="evenodd" fill="#FEFEFE" d="M599.034,408.075c0.647-0.381,1.294-0.762,1.941-1.143
			c-1.35,2.35-2.699,4.7-4.049,7.051C597.629,412.014,598.332,410.045,599.034,408.075z"/>
		<path fill-rule="evenodd" fill="#FEFEFE" d="M217.105,404.854c1.213,2.369,2.427,4.738,3.641,7.107
			C219.532,409.593,218.318,407.224,217.105,404.854z"/>
		<path fill-rule="evenodd" fill="#FEFEFE" d="M207.922,226.016c-0.977,2.534-1.954,5.068-2.931,7.602
			C205.968,231.084,206.945,228.55,207.922,226.016z"/>
		<path fill-rule="evenodd" fill="#FEFEFE" d="M210.071,391.511c1.363,2.48,2.727,4.961,4.091,7.442
			C212.798,396.473,211.435,393.992,210.071,391.511z"/>
		<path fill-rule="evenodd" fill="#FEFEFE" d="M269.724,140c-1.892,1.587-3.785,3.174-5.677,4.761
			C265.939,143.173,267.832,141.587,269.724,140z"/>
		<path fill-rule="evenodd" fill="#FEFEFE" d="M548.074,472.035c1.972-1.694,3.943-3.389,5.914-5.083
			C552.018,468.646,550.046,470.341,548.074,472.035z"/>
		<path fill-rule="evenodd" fill="#FEFEFE" d="M608.003,218.993c-0.334-1.664-0.669-3.329-1.003-4.993
			c3.558,0.511,3.303,2.546,1.998,4.999c-0.332,0.458-0.663,0.481-0.992-0.002L608.003,218.993z"/>
		<path fill-rule="evenodd" fill="#FEFEFE" d="M198.966,357.069c0.665,2.64,1.33,5.28,1.995,7.92
			C200.296,362.35,199.631,359.709,198.966,357.069z"/>
		<path fill-rule="evenodd" fill="#FEFEFE" d="M322.994,106.997c-2.316,0.938-4.632,1.878-6.948,2.817
			C318.362,108.875,320.678,107.936,322.994,106.997z"/>
		<path fill-rule="evenodd" fill="#FEFEFE" d="M606.977,393.935c-0.657,2.021-1.314,4.044-1.972,6.065
			c-0.373,0.323-0.746,0.646-1.12,0.971C604.915,398.625,605.945,396.279,606.977,393.935z"/>
		<path fill-rule="evenodd" fill="#FEFEFE" d="M626.005,325c-0.28,1.315-0.562,2.631-0.842,3.945
			c0.27-2.997,0.538-5.995,0.807-8.992C625.981,321.635,625.993,323.317,626.005,325z"/>
		<path fill-rule="evenodd" fill="#FEFEFE" d="M193.094,318.566c0.285,3.149,0.569,6.299,0.854,9.448
			C193.664,324.865,193.379,321.716,193.094,318.566z"/>
		<path fill-rule="evenodd" fill="#FEFEFE" d="M608.006,218.997c0.33,0.001,0.661,0.002,0.992,0.002
			c0.666,2.336,1.332,4.673,1.998,7.009C609.999,223.671,609.002,221.334,608.006,218.997z"/>
		<path fill-rule="evenodd" fill="#FEFEFE" d="M214.103,398.857c1.021,2.031,2.041,4.062,3.062,6.095
			C216.144,402.921,215.123,400.889,214.103,398.857z"/>
		<path fill-rule="evenodd" fill="#FEFEFE" d="M243.76,166.047c-1.253,1.56-2.507,3.119-3.76,4.678
			C241.253,169.165,242.506,167.606,243.76,166.047z"/>
		<path fill-rule="evenodd" fill="#FEFEFE" d="M461.021,516.012c2.316-0.617,4.633-1.233,6.949-1.85
			C465.654,514.778,463.338,515.395,461.021,516.012z"/>
		<path fill-rule="evenodd" fill="#FEFEFE" d="M236,435.28c1.225,1.556,2.449,3.111,3.674,4.667
			C238.449,438.392,237.225,436.836,236,435.28z"/>
		<path fill-rule="evenodd" fill="#FEFEFE" d="M575.938,443.984c1.365-1.64,2.729-3.278,4.095-4.918
			C578.667,440.706,577.303,442.345,575.938,443.984z"/>
		<path fill-rule="evenodd" fill="#FEFEFE" d="M577.001,167.001c0.671,1.323,1.342,2.647,2.014,3.971
			c-1.364-1.65-2.728-3.301-4.091-4.951C575.615,166.347,576.309,166.674,577.001,167.001z"/>
		<path fill-rule="evenodd" fill="#FEFEFE" d="M543.057,476.027c1.655-1.315,3.311-2.631,4.966-3.945
			C546.367,473.397,544.712,474.712,543.057,476.027z"/>
		<path fill-rule="evenodd" fill="#FEFEFE" d="M270.052,471.325c1.59,1.249,3.18,2.498,4.77,3.747
			C273.232,473.823,271.643,472.574,270.052,471.325z"/>
		<path fill-rule="evenodd" fill="#FEFEFE" d="M210.915,218.976c-0.926,2.174-1.853,4.348-2.78,6.522
			C209.062,223.324,209.989,221.15,210.915,218.976z"/>
		<path fill-rule="evenodd" fill="#FEFEFE" d="M193.966,328.069c0.328,2.648,0.655,5.297,0.982,7.945
			C194.621,333.366,194.293,330.718,193.966,328.069z"/>
		<path fill-rule="evenodd" fill="#FEFEFE" d="M302.956,116.979c-1.638,0.936-3.276,1.871-4.914,2.807
			C299.68,118.85,301.318,117.914,302.956,116.979z"/>
		<path fill-rule="evenodd" fill="#FEFEFE" d="M378.993,520.025c2.324,0.328,4.648,0.657,6.974,0.985
			C383.642,520.683,381.317,520.354,378.993,520.025z"/>
		<path fill-rule="evenodd" fill="#FEFEFE" d="M308.02,114.007c-1.677,0.982-3.354,1.965-5.032,2.946
			C304.665,115.972,306.343,114.989,308.02,114.007z"/>
		<path fill-rule="evenodd" fill="#FEFEFE" d="M194.948,272.985c-0.325,2.311-0.651,4.62-0.976,6.931
			C194.297,277.605,194.623,275.296,194.948,272.985z"/>
		<path fill-rule="evenodd" fill="#FEFEFE" d="M298.962,491.841c1.602,0.775,3.204,1.55,4.805,2.325
			c0.35,0.181,0.468,0.365,0.356,0.555c-0.112,0.191-0.225,0.287-0.341,0.287C302.176,493.952,300.569,492.896,298.962,491.841z"/>
		<path fill-rule="evenodd" fill="#FEFEFE" d="M515.994,493.998c1.674-0.979,3.349-1.959,5.023-2.938
			C519.343,492.039,517.668,493.019,515.994,493.998z"/>
		<path fill-rule="evenodd" fill="#FEFEFE" d="M521.059,491.028c1.636-0.94,3.271-1.881,4.907-2.821
			C524.33,489.147,522.694,490.088,521.059,491.028z"/>
		<path fill-rule="evenodd" fill="#FEFEFE" d="M244.982,447.097c1.381,1.31,2.763,2.618,4.145,3.928
			C247.746,449.715,246.364,448.406,244.982,447.097z"/>
		<path fill-rule="evenodd" fill="#FEFEFE" d="M224.775,192.045c-0.928,1.646-1.857,3.291-2.785,4.937
			C222.918,195.336,223.847,193.69,224.775,192.045z"/>
		<path fill-rule="evenodd" fill="#FEFEFE" d="M590.917,423.979c1.026-1.663,2.053-3.326,3.079-4.99
			C592.97,420.652,591.943,422.315,590.917,423.979z"/>
		<path fill-rule="evenodd" fill="#FEFEFE" d="M221.995,414.356c0.923,1.536,1.846,3.072,2.769,4.609
			C223.84,417.429,222.917,415.893,221.995,414.356z"/>
		<path fill-rule="evenodd" fill="#AA729D" d="M303.782,495.008c0.028-0.281,0.024-0.562-0.015-0.842
			c1.382,0.257,2.765,0.515,4.146,0.771c-0.604,0.292-1.206,0.585-1.81,0.878C305.33,495.546,304.556,495.277,303.782,495.008z"/>
		<path fill-rule="evenodd" fill="#FEFEFE" d="M221.981,196.994c-0.648,1.341-1.295,2.681-1.943,4.021
			C220.686,199.675,221.333,198.335,221.981,196.994z"/>
		<path fill-rule="evenodd" fill="#FEFEFE" d="M495.994,503.998c1.656-0.604,3.312-1.21,4.969-1.814
			C499.307,502.788,497.65,503.394,495.994,503.998z"/>
		<path fill-rule="evenodd" fill="#FEFEFE" d="M485.992,507.997c1.655-0.598,3.311-1.196,4.966-1.794
			C489.303,506.801,487.647,507.399,485.992,507.997z"/>
		<path fill-rule="evenodd" fill="#FEFEFE" d="M195.948,266.985c-0.328,1.982-0.655,3.964-0.983,5.946
			C195.293,270.949,195.621,268.967,195.948,266.985z"/>
		<path fill-rule="evenodd" fill="#FEFEFE" d="M366.993,518.024c1.995,0.329,3.99,0.658,5.985,0.987
			C370.983,518.683,368.988,518.354,366.993,518.024z"/>
		<path fill-rule="evenodd" fill="#FEFEFE" d="M372.995,519.019c1.992,0.332,3.984,0.664,5.977,0.997
			C376.979,519.683,374.987,519.351,372.995,519.019z"/>
		<path fill-rule="evenodd" fill="#FEFEFE" d="M433.023,521.008c1.982-0.279,3.964-0.559,5.945-0.838
			C436.987,520.449,435.006,520.729,433.023,521.008z"/>
		<path fill-rule="evenodd" fill="#FEFEFE" d="M207.952,385.104c0.654,1.626,1.308,3.251,1.961,4.877
			C209.259,388.354,208.605,386.729,207.952,385.104z"/>
		<path fill-rule="evenodd" fill="#FEFEFE" d="M514.935,116.041c0.355-0.015,0.71-0.029,1.065-0.045
			c0.994,1.025,1.989,2.051,2.983,3.076c-1.27-0.727-2.54-1.452-3.81-2.179c-0.384-0.097-0.547-0.255-0.49-0.476
			C514.748,116.167,514.831,116.041,514.935,116.041z"/>
		<path fill-rule="evenodd" fill="#FEFEFE" d="M432.992,90.003c0.669-0.021,1.339-0.043,2.008-0.064c0.667,0.01,1.333,0.021,2,0.031
			c0.651,0.286,1.304,0.573,1.955,0.86C436.968,90.554,434.979,90.278,432.992,90.003z"/>
		<path fill-rule="evenodd" fill="#FEFEFE" d="M376,90.993c1.329,0,2.658,0,3.986,0c-1.982,0.28-3.965,0.561-5.946,0.84
			C374.693,91.553,375.347,91.273,376,90.993z"/>
		<path fill-rule="evenodd" fill="#FEFEFE" d="M274.724,135.999c-1.226,0.922-2.452,1.845-3.678,2.767
			C272.272,137.843,273.498,136.921,274.724,135.999z"/>
		<path fill-rule="evenodd" fill="#FEFEFE" d="M544.002,135.005c0.001,0.324,0.004,0.648,0.009,0.972
			c-1.329-0.996-2.657-1.992-3.986-2.989C541.35,133.66,542.676,134.332,544.002,135.005z"/>
		<path fill-rule="evenodd" fill="#FEFEFE" d="M540.008,132.974c-1.35-0.986-2.699-1.973-4.048-2.959
			C537.309,131.001,538.658,131.987,540.008,132.974z"/>
		<path fill-rule="evenodd" fill="#FEFEFE" d="M612.984,231.043c-0.664-1.681-1.328-3.36-1.992-5.041
			C611.656,227.683,612.32,229.362,612.984,231.043z"/>
		<path fill-rule="evenodd" fill="#FEFEFE" d="M611.896,381.98c0.693-1.683,1.387-3.364,2.08-5.047
			C613.282,378.615,612.589,380.298,611.896,381.98z"/>
		<path fill-rule="evenodd" fill="#FEFEFE" d="M580.071,439.021c0.989-1.312,1.979-2.624,2.968-3.936
			C582.05,436.396,581.061,437.708,580.071,439.021z"/>
		<path fill-rule="evenodd" fill="#FEFEFE" d="M328.02,105.007c-1.674,0.662-3.348,1.325-5.021,1.987
			C324.672,106.331,326.346,105.669,328.02,105.007z"/>
		<path fill-rule="evenodd" fill="#FEFEFE" d="M583.093,435.025c0.981-1.314,1.964-2.63,2.945-3.944
			C585.057,432.396,584.074,433.711,583.093,435.025z"/>
		<path fill-rule="evenodd" fill="#FEFEFE" d="M195.964,342.073c0.29,1.967,0.579,3.933,0.869,5.899
			C196.543,346.006,196.253,344.04,195.964,342.073z"/>
		<path fill-rule="evenodd" fill="#FEFEFE" d="M194.966,336.069c0.326,1.982,0.653,3.964,0.979,5.946
			C195.619,340.033,195.292,338.052,194.966,336.069z"/>
		<path fill-rule="evenodd" fill="#FEFEFE" d="M624.975,330.93c0.009,1.69,0.017,3.38,0.025,5.07
			c-0.278,0.323-0.557,0.646-0.834,0.969C624.436,334.956,624.705,332.943,624.975,330.93z"/>
		<path fill-rule="evenodd" fill="#FEFEFE" d="M586.086,431.023c0.969-1.349,1.938-2.697,2.906-4.045
			C588.023,428.326,587.055,429.675,586.086,431.023z"/>
		<path fill-rule="evenodd" fill="#FEFEFE" d="M238.777,172.043c-0.934,1.303-1.868,2.605-2.802,3.907
			C236.909,174.647,237.843,173.346,238.777,172.043z"/>
		<path fill-rule="evenodd" fill="#FEFEFE" d="M538.987,478.996c1.343-0.979,2.687-1.958,4.03-2.937
			C541.674,477.038,540.33,478.017,538.987,478.996z"/>
		<path fill-rule="evenodd" fill="#FEFEFE" d="M235.946,175.986c-0.982,1.246-1.964,2.493-2.947,3.74
			C233.982,178.479,234.964,177.232,235.946,175.986z"/>
		<path fill-rule="evenodd" fill="#FEFEFE" d="M531.98,483.993c1.324-0.904,2.647-1.809,3.971-2.713
			C534.628,482.185,533.305,483.089,531.98,483.993z"/>
		<path fill-rule="evenodd" fill="#FEFEFE" d="M279.051,478.256c1.197,0.916,2.394,1.833,3.591,2.75
			C281.444,480.089,280.248,479.172,279.051,478.256z"/>
		<path fill-rule="evenodd" fill="#FEFEFE" d="M206.128,380.523c0.597,1.499,1.193,2.999,1.79,4.499
			C207.321,383.522,206.725,382.022,206.128,380.523z"/>
		<path fill-rule="evenodd" fill="#FEFEFE" d="M201.163,245.934c-0.391,1.228-0.782,2.456-1.172,3.684
			C200.381,248.39,200.772,247.161,201.163,245.934z"/>
		<path fill-rule="evenodd" fill="#FEFEFE" d="M197.991,352.383c0.319,1.544,0.639,3.088,0.958,4.632
			C198.629,355.471,198.31,353.927,197.991,352.383z"/>
		<path fill-rule="evenodd" fill="#FEFEFE" d="M249.984,451.923c0.906,1.011,1.813,2.021,2.72,3.031
			C251.797,453.943,250.891,452.934,249.984,451.923z"/>
		<path fill-rule="evenodd" fill="#FEFEFE" d="M196.939,262.014c-0.325,1.639-0.649,3.278-0.974,4.918
			C196.29,265.292,196.615,263.652,196.939,262.014z"/>
		<path fill-rule="evenodd" fill="#FEFEFE" d="M623.165,342.948c0.271-1.672,0.54-3.345,0.81-5.017
			C623.705,339.604,623.436,341.275,623.165,342.948z"/>
		<path fill-rule="evenodd" fill="#FEFEFE" d="M623,265c-0.009,1.348-0.018,2.695-0.026,4.043c-0.269-1.671-0.536-3.343-0.805-5.014
			C622.446,264.353,622.723,264.677,623,265z"/>
		<path fill-rule="evenodd" fill="#FEFEFE" d="M445.992,92.003c1.336-0.002,2.672-0.003,4.008-0.005
			c0.323,0.276,0.646,0.554,0.969,0.83C449.31,92.553,447.651,92.277,445.992,92.003z"/>
		<path fill-rule="evenodd" fill="#FEFEFE" d="M440.027,520.009c1.646-0.278,3.294-0.557,4.94-0.836
			C443.321,519.452,441.674,519.73,440.027,520.009z"/>
		<path fill-rule="evenodd" fill="#FEFEFE" d="M263.989,465.949c1.045,1.024,2.091,2.05,3.136,3.074
			C266.08,467.999,265.034,466.974,263.989,465.949z"/>
		<path fill-rule="evenodd" fill="#FEFEFE" d="M446.033,519.012c1.657-0.331,3.315-0.661,4.973-0.992
			C449.349,518.351,447.69,518.681,446.033,519.012z"/>
		<path fill-rule="evenodd" fill="#FEFEFE" d="M451.022,518.012c1.662-0.328,3.323-0.655,4.985-0.983
			C454.346,517.356,452.685,517.684,451.022,518.012z"/>
		<path fill-rule="evenodd" fill="#FEFEFE" d="M362.03,517.167c1.647,0.282,3.295,0.565,4.941,0.848
			C365.325,517.732,363.678,517.449,362.03,517.167z"/>
		<path fill-rule="evenodd" fill="#FEFEFE" d="M456.033,517.018c1.657-0.333,3.314-0.666,4.972-0.999
			C459.348,516.352,457.69,516.685,456.033,517.018z"/>
		<path fill-rule="evenodd" fill="#FEFEFE" d="M274.958,475.18c1.187,0.898,2.373,1.797,3.56,2.695
			C277.332,476.977,276.145,476.078,274.958,475.18z"/>
		<path fill-rule="evenodd" fill="#FEFEFE" d="M464.974,198.956c22.527,15.449,40.981,34.772,55.056,58.198
			c1.384,2.303,1.906,5.124,2.827,7.701c1.115,8.544,2.397,17.073,3.315,25.642c2.094,19.545-0.367,38.764-4.495,57.842
			c-0.384,1.776-0.577,3.594-0.86,5.393c-4.543,6.04-8.859,12.268-13.69,18.067c-5.182,6.219-10.807,12.071-16.339,17.991
			c-0.955,1.021-2.41,1.577-3.634,2.348c-1.995-1.817-1.028-4.042-0.733-6.098c4.148-28.842,9.087-57.561,13.485-86.363
			c2.312-15.144,4.93-30.238,7.084-45.405c0.321-2.264,1.207-4.962-1.49-6.242c-2.807-1.333-5.61-0.448-7.813,1.68
			c-3.788,3.657-6.164,8.312-8.182,13.039c-11.37,26.646-19.164,54.315-22.8,83.074c-1.126,8.907-1.064,17.919-0.204,26.892
			c0.25,2.604,1.175,5.006,3.086,6.66c8.425,7.292,5.984,15.997,3.479,24.759c-7.674,4.938-15.347,9.876-23.02,14.813
			c-7.461,0.841-14.92,1.704-22.386,2.504c-1.599,0.171-3.222,0.109-4.833,0.155c-2.113-5.711-1.614-11.773-2.052-17.655
			c-0.764-10.271,0.183-20.6-0.87-30.923c-0.642-6.294,1.383-11.88,7.19-15.973c16.659-11.74,25.039-28.598,26.141-48.422
			c1.157-20.822-4.747-39.983-19.562-55.355c-9.826-10.196-19.927-9.948-30.187-0.302c-10.802,10.156-15.958,23.261-18.722,37.326
			c-3.918,19.941-0.037,38.389,12.296,54.788c3.938,5.237,8.894,9.474,14.162,13.285c3.729,2.697,5.232,6.053,5.197,10.636
			c-0.123,16.145,0.163,32.294-1.072,48.414c-0.127,1.658-0.046,3.366-1.504,4.579c-6.382-0.012-12.862,0.683-19.124-0.19
			c-11.361-1.584-22.592-4.101-33.878-6.229c-1.674-2.611-1.818-5.689-2.512-8.579c-2.76-11.501-4.934-23.12-6.91-34.782
			c-0.673-3.977,0.145-7.166,2.933-10.035c8.073-8.308,11.613-18.12,11.423-29.864c-0.178-10.919-1.37-21.511-4.088-32.075
			c-3.438-13.365-7.389-26.628-9.305-40.344c-0.361-1.378-0.694-2.769-0.804-4.353c-0.103-0.507-0.562,0.128-0.528,0.181
			c1.04,1.631,1.003,3.571,1.44,5.396c3.702,19.484,4.909,39.283,7.644,58.885c0.3,2.153,0.442,4.318-0.102,6.454
			c-0.442,1.739-1.399,3.049-3.342,3.207c-1.714,0.14-2.787-0.889-3.581-2.256c-0.932-1.605-1.399-3.39-1.785-5.177
			c-4.009-18.543-9.622-36.724-12.5-55.521c-0.125-0.816-0.624-1.543-0.74-2.365c-0.104-1.089-0.102-2.191-0.156-3.283
			c0.016,2.033,0,4.071,0.931,5.985c2.459,19.311,5.046,38.596,6.783,57.98c0.089,0.994,0.277,1.983,0.22,2.984
			c-0.127,2.219-1.137,3.941-3.363,4.392c-2.127,0.43-3.384-1.068-4.241-2.786c-0.974-1.951-1.37-4.103-1.849-6.209
			c-3.831-16.872-8.054-33.652-11.965-50.506c-0.6-2.584-0.266-5.33-1.285-7.844c-0.258-1.5-0.104-3.114-1.014-4.453
			c1.177,1.874,0.579,4.196,1.42,6.161c3.45,19.837,4.812,39.933,7.598,59.85c0.092,0.659,0.151,1.327,0.124,1.992
			c-0.104,2.539-0.116,5.388-3.321,5.895c-3.159,0.499-4.43-2.071-5.016-4.537c-4.309-18.138-9.067-36.17-12.896-54.421
			c-0.1-0.478-0.071-0.988-0.208-1.457c3.524,19.463,2.65,39.529,8.279,58.707c1.839,6.268,4.628,12.143,7.548,17.93
			c2.979,5.903,8.385,9.521,14.012,12.393c5.852,2.987,8.507,7.559,9.354,13.747c1.197,8.742,2.74,17.435,3.878,26.187
			c0.274,2.107,0.909,4.324-1.075,6.05c-6.498-4.727-13.448-8.948-19.402-14.281c-13.379-11.982-24.521-25.935-33.748-41.368
			c-0.837-1.401-1.306-3.022-1.946-4.543c-1.345-10.488-2.917-20.953-3.987-31.468c-2.125-20.866,1.366-41.222,6.147-61.422
			c5.732-7.452,11.353-14.996,17.222-22.341c13.086-16.374,29.574-28.782,47.153-39.853c1.629-1.025,3.695-1.357,5.559-2.011
			c18.225-6.112,36.932-6.107,55.772-4.418c3.425,0.445,6.959-0.218,10.315,0.956c1.347,0.314,2.747,0.255,4.102,0.529
			c5.471,1.373,11.076,2.099,16.563,3.392C459.614,193.233,463.057,195.03,464.974,198.956z"/>
		<path fill-rule="evenodd" fill="#4F8BB8" d="M473.065,404.133c0.226-4.725,0.6-9.449,0.604-14.175
			c0.002-1.867-0.184-4.626-1.362-5.464c-9.03-6.422-8.034-15.977-7.77-24.952c0.912-30.986,9.266-60.375,20.378-89.044
			c2.622-6.763,6.181-13.207,9.812-19.508c1.191-2.066,3.752-3.864,6.072-4.658c5.995-2.053,8.8,0.641,7.821,6.84
			c-7.152,45.325-14.288,90.653-21.407,135.983c-0.153,0.973-0.048,1.986-0.062,2.981
			C482.457,396.136,477.762,400.135,473.065,404.133z"/>
		<path fill-rule="evenodd" fill="#BA5B78" d="M350.004,443.092c4.66,0.289,9.32,0.578,13.979,0.866
			c-4.656-0.002-9.312-0.004-13.969-0.006c-0.336-0.187-0.449-0.376-0.341-0.569C349.783,443.189,349.893,443.092,350.004,443.092z"
			/>
		<path fill-rule="evenodd" fill="#A65986" d="M338.976,496.923c-2.65,0.002-5.302,0.005-7.952,0.006
			C333.675,496.927,336.325,496.925,338.976,496.923z"/>
		<path fill-rule="evenodd" fill="#B75472" d="M333.062,442.05c1.985,0.312,3.97,0.624,5.955,0.937
			C337.032,442.674,335.047,442.361,333.062,442.05z"/>
		<path fill-rule="evenodd" fill="#AF5178" d="M350.004,443.092c-0.002,0.287,0.002,0.574,0.011,0.861
			c-1.979-0.294-3.958-0.588-5.936-0.881C346.055,443.079,348.029,443.086,350.004,443.092z"/>
		<path fill-rule="evenodd" fill="#B95571" d="M326.026,441.034c1.656,0.316,3.312,0.632,4.97,0.947
			C329.339,441.666,327.683,441.35,326.026,441.034z"/>
		<path fill-rule="evenodd" fill="#64A8DE" d="M464.974,198.956c-6.466-5.841-14.838-6.161-22.733-7.873
			c-1.102-0.239-2.155-0.693-3.231-1.048c-1.276-1.21-2.623-0.733-3.974-0.165c-3.334-0.339-6.668-0.677-10.002-1.015
			c0.459-3.384,2.184-5.332,5.808-5.024c0.2,0.017,0.441,0.458,0.796,0.477c-0.47-2.775,1.094-3.333,3.111-2.358
			c2.479,1.196,6.007,1.123,6.675,4.88c1.28-1.603,1.413-2.933-0.462-4.191c-1.451-0.974-2.248-2.536-2.158-4.271
			c0.109-2.102,1.177-2.023,2.824-0.895c-1.539-2.653-5.169-4.497-3.624-8.34c32.897-4.014,64.871-0.332,95.677,11.999
			c16.001,6.405,31.119,14.508,44.43,25.656c-0.176,0.722-0.726,1.851-0.461,2.094c0.944,0.869,2.165,1.438,3.28,2.119
			c-0.311,0.402-0.621,0.805-0.932,1.207c-0.487-0.541-0.903-1.181-1.478-1.604c-1.609-1.188-2.452-0.189-3.582,0.792
			c-1.545,1.344-3.932,2.029-6.041,2.274c-0.934,0.108-2.072-1.557-3.118-2.416c1.183-1.094,2.365-2.188,3.264-3.018
			c-1.822-0.399-4.665-1.084-7.541-1.587c-0.459-0.08-1.563,0.899-1.524,0.981c1.391,2.883-3.082,2.791-2.67,5.219
			c0.038,0.228-1.295,0.689-1.99,1.042c0.006-0.639,0.238-1.404-0.031-1.891c-0.538-0.974-1.353-1.794-2.354-3.058
			c-0.257,1.061-0.442,1.375-0.376,1.623c2.043,7.607,2.062,7.539-4.979,6.004c-2.386-0.52-4.864-0.659-7.31-0.794
			c-0.237-0.014-0.953,1.445-0.742,1.866c0.586,1.161,1.545,2.135,2.083,2.83c-2.027,1.257-4.396,2.884-6.927,4.194
			c-0.742,0.384-2.03,0.078-2.93-0.27c-3.809-1.472-6.348-0.336-7.747,3.463c-16.283-12.471-34.21-21.875-53.583-28.521
			C468.757,198.769,466.796,199.063,464.974,198.956z"/>
		<path fill-rule="evenodd" fill="#64A8DD" d="M438.003,169.132c1.905,3.67,3.811,7.34,5.716,11.01
			c-0.282,0.229-0.563,0.459-0.846,0.688c-0.971-1.122-1.942-2.244-3.666-4.235c0.728,2.177,0.806,4.088,1.564,4.413
			c5.823,2.5,2.477,5.396,1.192,7.332c-2.289-1.744-4.521-3.546-6.861-5.193c-1.744-1.227-3.125-1.282-3.134,1.487
			c-0.002,0.421-0.475,0.841-0.729,1.262c-4.063-3.194-4.217,1.808-6.207,2.96c-3.282-0.233-6.595-0.875-9.841-0.631
			c-14.802,1.111-29.585,2.476-44.377,3.729c-0.649,0.055-1.315-0.08-1.976-0.128c10.39-4.611,20.488-10.126,31.246-13.597
			C412.419,174.251,425.338,172.085,438.003,169.132z"/>
		<path fill-rule="evenodd" fill="#FEFEFE" d="M544.023,135.988c1.661,1.327,3.323,2.653,4.984,3.98
			C547.347,138.642,545.685,137.315,544.023,135.988z"/>
		<path fill-rule="evenodd" fill="#FEFEFE" d="M579.031,170.991c1.325,1.665,2.65,3.33,3.976,4.996
			C581.682,174.321,580.356,172.656,579.031,170.991z"/>
		<path fill-rule="evenodd" fill="#FEFEFE" d="M593.909,192.022c1.025,1.673,2.051,3.347,3.076,5.021
			C595.96,195.369,594.935,193.695,593.909,192.022z"/>
		<path fill-rule="evenodd" fill="#FEFEFE" d="M583.014,175.996c0.99,1.35,1.98,2.699,2.971,4.049
			C584.994,178.695,584.004,177.346,583.014,175.996z"/>
		<path fill-rule="evenodd" fill="#BCD77E" d="M514.935,116.041c0.07,0.287,0.149,0.571,0.238,0.853
			c-1.744-0.271-3.488-0.543-5.234-0.813c1.035-0.034,2.071-0.067,3.106-0.102C513.675,115.999,514.305,116.021,514.935,116.041z"/>
		<path fill-rule="evenodd" fill="#DBE473" d="M502.907,115.028c1.703,0.3,3.406,0.599,5.11,0.897
			C506.313,115.627,504.61,115.327,502.907,115.028z"/>
		<path fill-rule="evenodd" fill="#4F8BB8" d="M413.845,422.004c0.385-18.116,0.714-36.235,1.204-54.349
			c0.095-3.514-1.056-5.705-4.021-7.816c-20.597-14.669-30.501-34.933-28.857-60.037c1.234-18.851,7.437-36.063,22.025-49.24
			c9.076-8.198,19.647-8.378,28.515,0.071c17.391,16.57,23.42,37.5,21.58,60.777c-1.629,20.607-11.827,36.707-28.635,48.583
			c-2.683,1.896-4.189,3.854-4.074,7.31c0.502,15.116,0.816,30.24,1.178,45.361c0.071,2.979,0.05,5.962,0.069,8.942
			C419.833,421.738,416.839,421.871,413.845,422.004z"/>
		<path fill-rule="evenodd" fill="#4F8BB8" d="M351.843,409.112c-1.846-12.806-3.583-25.628-5.672-38.394
			c-0.266-1.627-2.073-3.638-3.659-4.312c-14.73-6.26-22.025-18.492-25.45-33.028c-2.881-12.227-4.3-24.815-6.021-37.292
			c-1.223-8.855-1.872-17.79-1.777-26.995c0.475,1.387,1.063,2.746,1.405,4.164c4.518,18.74,8.938,37.504,13.598,56.208
			c0.415,1.663,2.326,2.953,3.542,4.416c0.7-1.771,2.163-3.624,1.983-5.302c-1.959-18.328-4.186-36.627-6.307-54.938
			c-0.286-2.468-0.396-4.957-0.588-7.437c-0.268-0.917-0.994-2.019,0.839-2.095c5.042,21.008,10.026,42.029,15.232,62.996
			c0.415,1.673,2.352,2.968,3.58,4.438c0.617-1.796,1.918-3.662,1.745-5.379c-2.012-19.996-4.244-39.969-6.419-59.948
			c-0.09-1.142-1.349-2.618,0.885-3.096c4.873,20.536,9.695,41.084,14.717,61.584c0.382,1.559,2.173,2.771,3.31,4.146
			c0.729-1.596,2.217-3.267,2.068-4.776c-1.307-13.227-2.93-26.422-4.407-39.632c-0.904-8.085-1.718-16.18-2.572-24.271
			c-0.479-0.992,0.002-1.195,0.881-1.073c4.608,19.201,9.744,38.297,13.571,57.652c1.579,7.985,0.792,16.556,0.265,24.808
			c-0.519,8.095-4.905,14.693-10.384,20.482c-2.88,3.044-4.418,6.027-3.359,10.635c2.823,12.289,5.055,24.716,7.453,37.101
			c0.368,1.901,0.374,3.874,0.545,5.812c-0.937-0.242-1.871-0.482-2.806-0.722c-1.049-0.92-2.47-1.46-2.988-2.921
			C353.982,411,352.912,410.057,351.843,409.112z"/>
		<path fill-rule="evenodd" fill="#DD9D5F" d="M355.052,411.944c0.996,0.974,1.992,1.947,2.988,2.921
			c-1.737-0.603-3.474-1.205-5.213-1.807C353.568,412.688,354.31,412.315,355.052,411.944z"/>
		<path fill-rule="evenodd" fill="#FEFEFE" d="M503.001,110c2.646,1.245,5.291,2.49,7.937,3.735
			C508.292,112.49,505.646,111.245,503.001,110z"/>
		<path fill-rule="evenodd" fill="#FEFEFE" d="M379.998,90.986c2-0.329,4.001-0.658,6.001-0.986
			C383.999,90.328,381.998,90.657,379.998,90.986z"/>
		<path fill-rule="evenodd" fill="#FEFEFE" d="M363.049,93.834c1.651-0.278,3.302-0.556,4.952-0.834
			C366.351,93.278,364.7,93.556,363.049,93.834z"/>
		<path fill-rule="evenodd" fill="#FEFEFE" d="M439.992,91.003c1.65,0.274,3.301,0.55,4.951,0.824
			C443.293,91.553,441.643,91.277,439.992,91.003z"/>
		<path fill-rule="evenodd" fill="#647CB8" d="M548.079,352.055c-0.001,3.964-0.003,7.927-0.003,11.89
			C548.077,359.98,548.078,356.018,548.079,352.055z"/>
		<path fill-rule="evenodd" fill="#6F70AF" d="M546.977,380.963c-0.312,1.669-0.626,3.337-0.938,5.006
			C546.352,384.3,546.664,382.631,546.977,380.963z"/>
		<path fill-rule="evenodd" fill="#FEFEFE" d="M191,625.346c0.923-9.673,3.141-21.578,12.18-30.928
			c1.387-1.435,3.402-2.502,5.325-3.125c3.614-1.17,6.96,1.166,6.377,4.883c-1.453,9.276-3.479,18.465-5.316,27.68
			c-0.44,2.21-0.866,4.447-1.601,6.567c-1.904,5.5-7.088,9.516-11.203,8.883C192.265,638.613,191,636.136,191,625.346z"/>
		<path fill-rule="evenodd" fill="#FEFEFE" d="M266.288,600.513c0.571,8.2,0.858,16.434,1.823,24.587
			c0.546,4.613,0.99,8.822-2.051,12.82c-2.982,3.92-7.097,4.691-11.329,3.887c-2-0.38-3.883-2.488-5.304-4.233
			c-0.521-0.64-2.353-3.934,2.141-2.905c4.13,0.946,8.439-5.107,6.277-8.628c-1.792-2.919-1.768-5.147-0.4-7.987
			c2.786-5.787,5.368-11.673,8.034-17.518C265.749,600.527,266.019,600.52,266.288,600.513z"/>
		<path fill-rule="evenodd" fill="#FEFEFE" d="M326.967,657.154c-1.347,4.661-2.275,9.202-3.983,13.428
			c-1.823,4.51-5.525,5.385-8.987,2.93c-3.701-2.625-1.625-5.749-0.488-8.335C315.081,661.598,321.484,658.063,326.967,657.154z"/>
		<path fill-rule="evenodd" fill="#78B1DE" d="M600.091,364.073c0.008,2.948,0.017,5.896,0.025,8.845
			C600.108,369.969,600.1,367.021,600.091,364.073z"/>
		<path fill-rule="evenodd" fill="#77B2E0" d="M600.995,390.004c-0.3,2.306-0.6,4.611-0.898,6.916
			c0.003-2.302,0.006-4.604,0.008-6.904C600.396,389.562,600.691,389.536,600.995,390.004z"/>
		<path fill-rule="evenodd" fill="#75AAD8" d="M600.995,390.004c-0.298-0.001-0.595,0.003-0.892,0.012
			c0.013-1.646,0.023-3.293,0.035-4.939C600.425,386.72,600.71,388.361,600.995,390.004z"/>
		<path fill-rule="evenodd" fill="#FEFEFE" d="M527.867,629.303c0.707-12.328,3.698-23.396,10.633-32.962
			c1.803-2.486,5.319-4.187,8.394-5.172c3.21-1.028,6.232,2.526,5.563,5.85c-2.14,10.631-4.044,21.323-6.658,31.837
			c-0.812,3.265-3.119,6.528-5.586,8.925c-3.901,3.791-10.073,1.609-11.621-3.73C528.099,632.349,528.043,630.52,527.867,629.303z"
			/>
		<path fill-rule="evenodd" fill="#FEFEFE" d="M623.133,594.343c-1.072,10.016-7.675,19.671-16.539,22.368
			c-2.427,0.738-4.359,0.753-2.665-2.844c3.481-7.392,6.574-14.977,10.336-22.218c0.695-1.339,4.249-2.466,5.652-1.836
			C621.628,590.58,622.463,593.306,623.133,594.343z"/>
		<path fill-rule="evenodd" fill="#FEFEFE" d="M626.161,299.053c0,5.63,0,11.26,0,16.89
			C626.161,310.312,626.161,304.683,626.161,299.053z"/>
		<path fill-rule="evenodd" fill="#FEFEFE" d="M609.975,386.932c-0.691,1.678-1.382,3.355-2.073,5.033
			C608.592,390.287,609.283,388.609,609.975,386.932z"/>
		<path fill-rule="evenodd" fill="#FEFEFE" d="M624.166,276.053c0.27,2.006,0.539,4.012,0.809,6.018
			C624.705,280.064,624.436,278.059,624.166,276.053z"/>
		<path fill-rule="evenodd" fill="#FEFEFE" d="M622.95,269.008c0.342,2.019,0.685,4.037,1.026,6.057
			C623.635,273.046,623.292,271.026,622.95,269.008z"/>
		<path fill-rule="evenodd" fill="#FEFEFE" d="M617.129,246.005c0.615,1.688,1.231,3.375,1.847,5.062
			C618.36,249.38,617.744,247.692,617.129,246.005z"/>
		<path fill-rule="evenodd" fill="#6399C1" d="M323.735,264.108c-0.279,0.697-0.559,1.396-0.838,2.094
			c-0.407-2.021-0.814-4.045-1.222-6.067c0.389-0.091,0.777-0.183,1.166-0.273C323.14,261.277,323.438,262.692,323.735,264.108z"/>
		<path fill-rule="evenodd" fill="#6C9FC4" d="M338.759,263.12c-0.294,1.031-0.589,2.062-0.884,3.095
			c-0.411-2.186-0.821-4.372-1.232-6.559c0.376-0.093,0.752-0.186,1.128-0.279C338.1,260.625,338.43,261.873,338.759,263.12z"/>
		<path fill-rule="evenodd" fill="#6B9EC3" d="M352.755,259.098c-0.294,0.357-0.587,0.715-0.88,1.073
			c-0.366-1.691-0.732-3.384-1.098-5.075c0.363-0.09,0.727-0.18,1.09-0.27C352.163,256.25,352.459,257.674,352.755,259.098z"/>
		<path fill-rule="evenodd" fill="#ADCADE" d="M308.369,262.546c0.219,1.26,0.438,2.52,0.656,3.779
			c-0.367,0.083-0.735,0.167-1.103,0.25c-0.338-1.239-0.677-2.479-1.015-3.719C307.396,262.753,307.882,262.649,308.369,262.546z"/>
		<path fill-rule="evenodd" fill="#64A8DD" d="M435.035,189.87c1.324,0.055,2.649,0.109,3.974,0.165
			C437.685,189.979,436.359,189.925,435.035,189.87z"/>
		<path fill-rule="evenodd" fill="#64A8DE" d="M548.45,197.95c2.418,0.744,3.846,1.306,5.325,1.602
			c1.224,0.245,2.524,0.094,3.753,0.324c0.232,0.043,0.331,1.051,0.372,1.622c0.008,0.098-0.755,0.436-0.872,0.333
			c-3.707-3.266-3.837,0.553-4.952,2.461c-0.525,0.899-1.135,1.748-1.707,2.62c-0.773-0.614-1.848-1.076-2.256-1.877
			c-0.718-1.409-1.529-3.085-1.359-4.539C546.902,199.221,548.344,198.096,548.45,197.95z"/>
		<path fill-rule="evenodd" fill="#64A8DE" d="M554.521,195.287c4.885-0.286,6.807,1.207,7.187,6.897
			C558.92,199.508,556.699,197.377,554.521,195.287z"/>
		<path fill-rule="evenodd" fill="#64A8DE" d="M563.685,203.168c0.41-0.732,0.901-1.607,1.392-2.482
			c0.462,0.736,1.389,1.545,1.288,2.193c-0.205,1.308-0.969,2.528-1.502,3.785C564.541,205.711,564.22,204.757,563.685,203.168z"/>
		<path fill-rule="evenodd" fill="#64A8DD" d="M446.604,185.562c1.704,0.545,3.407,1.09,5.111,1.634
			c-0.13,0.434-0.26,0.868-0.391,1.302c-1.719-0.497-3.438-0.993-5.157-1.49C446.312,186.526,446.458,186.044,446.604,185.562z"/>
		<path fill-rule="evenodd" fill="#64A8DE" d="M572.724,206.028c-0.841,0.379-1.435,0.865-1.991,0.825
			c-0.428-0.03-1.206-0.985-1.144-1.081c0.436-0.665,1.05-1.212,1.606-1.797C571.605,204.525,572.015,205.076,572.724,206.028z"/>
		<path fill-rule="evenodd" fill="#64A8DE" d="M555.924,205.753c-0.694,0.524-1.219,1.158-1.479,1.063
			c-0.454-0.165-1.112-0.882-1.027-1.178c0.151-0.521,0.797-0.897,1.236-1.334C554.987,204.685,555.32,205.064,555.924,205.753z"/>
		<path fill-rule="evenodd" fill="#64A8DD" d="M447.677,188.123c-1.003,0.928-1.382,1.432-1.886,1.674
			c-0.224,0.108-0.701-0.311-1.063-0.49c0.441-0.395,0.851-0.839,1.341-1.16C446.281,188.008,446.661,188.123,447.677,188.123z"/>
		<path fill-rule="evenodd" fill="#64A8DD" d="M434.243,188.309c-0.642-0.899-1.044-1.222-1.083-1.583
			c-0.043-0.4,0.247-0.836,0.392-1.257c0.293,0.189,0.797,0.344,0.836,0.575C434.478,186.574,434.339,187.142,434.243,188.309z"/>
	</g>
</g>
</svg>
